# Blender v2.78 (sub 0) OBJ File: 'blowfish.blend'
# www.blender.org
mtllib blowfish.mtl
o Icosphere_Icosphere.002
v 0.000435 -0.955946 -0.016987
v 0.850733 -0.403166 0.260482
v -0.000698 -0.403166 0.877436
v -0.850565 -0.403162 0.258323
v -0.524369 -0.403166 -0.741262
v 0.527089 -0.403166 -0.739919
v 0.525240 0.491274 0.707288
v -0.526218 0.491273 0.705945
v -0.849862 0.491273 -0.294457
v 0.001569 0.491274 -0.911411
v 0.851436 0.491269 -0.292298
v 0.000435 1.044054 -0.016987
v -0.000231 -0.806601 0.508738
v 0.500224 -0.806601 0.146104
v 0.499561 -0.481684 0.671833
v 0.809783 -0.481682 -0.278823
v 0.309992 -0.806601 -0.441913
v -0.499770 -0.806598 0.144836
v -0.500439 -0.481683 0.670564
v -0.308035 -0.806601 -0.442702
v -0.808244 -0.481683 -0.280879
v 0.001522 -0.481684 -0.867633
v 1.000435 0.044054 -0.015720
v 0.810202 0.044054 -0.603739
v 0.308242 0.044054 0.842183
v 0.808704 0.044054 0.571826
v -0.809331 0.044054 0.569765
v -0.309792 0.044054 0.849053
v -0.807833 0.044054 -0.605801
v -0.999564 0.044054 -0.018255
v 0.310662 0.044054 -0.967650
v -0.307371 0.044054 -0.968436
v 0.809115 0.569790 0.246905
v -0.000651 0.569791 0.803238
v -0.808913 0.569790 0.244848
v -0.498690 0.569791 -0.705808
v 0.501310 0.569790 -0.704538
v 0.308906 0.894708 0.408728
v 0.500640 0.894705 -0.178811
v -0.309122 0.894708 0.407939
v -0.499353 0.894708 -0.180079
v 0.001102 0.894708 -0.542712
v 0.417073 0.692991 0.558008
v 0.262294 0.530532 0.770473
v 0.154127 0.732250 0.621193
v 0.471156 0.592132 0.632648
v 0.130821 0.550162 0.802066
v 0.076738 0.651021 0.727426
v 0.362989 0.793849 0.483368
v 0.393767 0.510903 0.738881
v 0.231516 0.813479 0.514960
v 0.285600 0.787688 0.629266
v 0.208211 0.706459 0.735498
v 0.339684 0.686829 0.703906
v -0.263435 0.530532 0.769802
v -0.417670 0.692991 0.556942
v -0.154887 0.732250 0.620799
v -0.394826 0.510903 0.737873
v -0.471944 0.592132 0.631443
v -0.077769 0.651020 0.727229
v -0.132043 0.550162 0.801730
v -0.363396 0.793849 0.482440
v -0.232004 0.813479 0.514369
v -0.286278 0.762947 0.646998
v -0.340552 0.662088 0.721500
v -0.209161 0.681718 0.753428
v 0.001645 0.044054 -0.968043
v 0.016727 0.678914 -1.194129
v 0.003531 0.282404 -1.522248
v -0.003325 -0.113101 -1.255122
v 0.164247 0.276318 -1.227745
v -0.157616 0.277952 -1.228027
vn 0.1944 -0.9435 0.2683
vn 0.7487 -0.6617 0.0395
vn -0.1951 -0.9435 0.2678
vn -0.3150 -0.9435 -0.1028
vn 0.0004 -0.9435 -0.3313
vn 0.9436 -0.3304 -0.0235
vn 0.3516 -0.1703 0.9205
vn -0.7495 -0.3304 0.5737
vn -0.7772 -0.3304 -0.5356
vn 0.2692 -0.3304 -0.9046
vn 0.9431 -0.1256 0.3078
vn 0.0111 0.0710 0.9974
vn -0.9439 -0.1256 0.3054
vn -0.5821 -0.1256 -0.8033
vn 0.5842 -0.1256 -0.8019
vn 0.5825 0.6617 0.4720
vn -0.2689 0.6617 0.6999
vn -0.7487 0.6617 -0.0395
vn -0.1938 0.6617 -0.7243
vn 0.6289 0.6617 -0.4081
vn 0.1951 0.9435 -0.2678
vn 0.3574 0.7947 -0.4907
vn 0.1957 0.6617 -0.7238
vn -0.1944 0.9435 -0.2683
vn -0.3562 0.7947 -0.4916
vn -0.6279 0.6617 -0.4097
vn -0.3152 0.9435 0.1020
vn -0.5776 0.7947 0.1869
vn -0.5837 0.6617 0.4706
vn -0.0004 0.9435 0.3313
vn -0.0008 0.7893 0.6140
vn 0.1004 0.6261 0.7733
vn 0.3150 0.9435 0.1028
vn 0.5771 0.7947 0.1883
vn 0.7488 0.6617 -0.0376
vn 0.7495 0.3304 -0.5737
vn 0.5784 0.1876 -0.7939
vn 0.3162 0.3304 -0.8893
vn -0.3140 0.3304 -0.8901
vn -0.5763 0.1876 -0.7954
vn -0.7481 0.3304 -0.5756
vn -0.9436 0.3304 0.0235
vn -0.9346 0.1876 0.3023
vn -0.7785 0.3304 0.5336
vn -0.2029 0.1616 0.9658
vn 0.0111 0.0803 0.9967
vn 0.1987 0.1465 0.9691
vn 0.7772 0.3304 0.5356
vn 0.9338 0.1876 0.3047
vn 0.9435 0.3304 0.0259
vn 0.0013 0.1256 -0.9921
vn 0.0012 -0.1876 -0.9822
vn -0.2669 -0.3304 -0.9053
vn -0.9431 0.1256 -0.3078
vn -0.9338 -0.1876 -0.3047
vn -0.9435 -0.3304 -0.0259
vn -0.4875 0.0431 0.8720
vn -0.4846 -0.1185 0.8667
vn -0.3511 -0.1844 0.9180
vn 0.4750 0.0347 0.8793
vn 0.4723 -0.1114 0.8743
vn 0.7481 -0.3304 0.5756
vn 0.9439 0.1256 -0.3054
vn 0.9346 -0.1876 -0.3023
vn 0.7785 -0.3304 -0.5336
vn 0.2689 -0.6617 -0.6999
vn 0.0008 -0.7947 -0.6071
vn -0.2671 -0.6617 -0.7006
vn -0.5825 -0.6617 -0.4720
vn -0.5771 -0.7947 -0.1883
vn -0.7488 -0.6617 0.0376
vn -0.6289 -0.6617 0.4081
vn -0.3574 -0.7947 0.4907
vn -0.1957 -0.6617 0.7238
vn 0.5837 -0.6617 -0.4706
vn 0.5776 -0.7947 -0.1869
vn 0.3152 -0.9435 -0.1020
vn 0.1938 -0.6617 0.7243
vn 0.3562 -0.7947 0.4916
vn 0.6279 -0.6617 0.4097
vn -0.3801 0.8473 0.3710
vn 0.2625 0.2652 0.9278
vn 0.6674 0.6399 0.3810
vn 0.6231 0.3323 0.7080
vn 0.2671 0.6617 0.7006
vn 0.1781 0.9746 0.1356
vn -0.2551 0.4831 0.8376
vn -0.6335 0.6504 0.4190
vn -0.2590 0.1954 0.9459
vn 0.2867 0.8503 0.4413
vn 0.2769 0.4700 0.8381
vn -0.1024 0.6261 0.7730
vn -0.2068 0.9394 0.2733
vn -0.6438 0.3070 0.7009
vn -0.2591 0.1954 0.9459
vn -0.8747 -0.0610 0.4809
vn -0.9044 0.3762 0.2012
vn -0.8103 0.3894 -0.4379
vn -0.8354 -0.2976 -0.4621
vn -0.9024 -0.3712 0.2188
vn 0.9141 0.3135 0.2571
vn 0.8699 -0.0618 0.4894
vn 0.8942 -0.3990 0.2030
vn 0.8276 -0.3239 -0.4584
vn 0.8282 0.3406 -0.4449
usemtl None
s off
f 1//1 14//1 13//1
f 2//2 14//2 16//2
f 1//3 13//3 18//3
f 1//4 18//4 20//4
f 1//5 20//5 17//5
f 2//6 16//6 23//6
f 3//7 15//7 25//7
f 4//8 19//8 27//8
f 5//9 21//9 29//9
f 6//10 22//10 31//10
f 2//11 23//11 26//11
f 3//12 25//12 28//12
f 4//13 27//13 30//13
f 5//14 29//14 32//14
f 6//15 31//15 24//15
f 7//16 33//16 38//16 49//16 43//16 46//16
f 8//17 58//17 59//17
f 9//18 35//18 41//18
f 10//19 36//19 42//19
f 11//20 37//20 39//20
f 39//21 42//21 12//21
f 39//22 37//22 42//22
f 37//23 10//23 42//23
f 42//24 41//24 12//24
f 42//25 36//25 41//25
f 36//26 9//26 41//26
f 41//27 40//27 12//27
f 41//28 35//28 40//28
f 35//29 8//29 59//29 56//29 62//29 40//29
f 40//30 38//30 12//30
f 40//31 63//31 57//31 60//31 34//31 48//31 45//31 51//31 38//31
f 34//32 47//32 48//32
f 38//33 39//33 12//33
f 38//34 33//34 39//34
f 33//35 11//35 39//35
f 24//36 37//36 11//36
f 24//37 31//37 37//37
f 31//38 10//38 37//38
f 32//39 36//39 10//39
f 32//40 29//40 36//40
f 29//41 9//41 36//41
f 30//42 35//42 9//42
f 30//43 27//43 35//43
f 27//44 8//44 35//44
f 28//45 34//45 61//45 55//45 58//45 8//45
f 28//46 25//46 34//46
f 25//47 7//47 50//47 44//47 47//47 34//47
f 26//48 33//48 7//48
f 26//49 23//49 33//49
f 23//50 11//50 33//50
f 31//51 67//51 32//51 10//51
f 31//52 22//52 32//52 67//52
f 22//53 5//53 32//53
f 29//54 30//54 9//54
f 29//55 21//55 30//55
f 21//56 4//56 30//56
f 27//57 28//57 8//57
f 27//58 19//58 28//58
f 19//59 3//59 28//59
f 25//60 26//60 7//60
f 25//61 15//61 26//61
f 15//62 2//62 26//62
f 23//63 24//63 11//63
f 23//64 16//64 24//64
f 16//65 6//65 24//65
f 17//66 22//66 6//66
f 17//67 20//67 22//67
f 20//68 5//68 22//68
f 20//69 21//69 5//69
f 20//70 18//70 21//70
f 18//71 4//71 21//71
f 18//72 19//72 4//72
f 18//73 13//73 19//73
f 13//74 3//74 19//74
f 16//75 17//75 6//75
f 16//76 14//76 17//76
f 14//77 1//77 17//77
f 13//78 15//78 3//78
f 13//79 14//79 15//79
f 14//80 2//80 15//80
f 45//81 52//81 51//81
f 45//81 53//81 52//81
f 44//82 50//82 54//82
f 54//83 46//83 43//83
f 54//84 50//84 46//84
f 50//85 7//85 46//85
f 52//83 54//83 43//83
f 52//85 53//85 54//85
f 53//82 44//82 54//82
f 51//85 49//85 38//85
f 51//86 52//86 49//86
f 52//83 43//83 49//83
f 48//81 53//81 45//81
f 48//87 47//87 53//87
f 47//82 44//82 53//82
f 56//88 64//88 62//88
f 56//88 65//88 64//88
f 55//89 61//89 66//89
f 66//90 60//90 57//90
f 66//91 61//91 60//91
f 61//92 34//92 60//92
f 64//90 66//90 57//90
f 64//17 65//17 66//17
f 65//89 55//89 66//89
f 62//17 63//17 40//17
f 62//93 64//93 63//93
f 64//90 57//90 63//90
f 59//88 65//88 56//88
f 59//94 58//94 65//94
f 58//95 55//95 65//95
f 67//96 10//96 72//96
f 68//97 72//97 10//97
f 69//98 72//98 68//98
f 70//99 72//99 69//99
f 70//100 67//100 72//100
f 68//101 10//101 71//101
f 67//102 71//102 10//102
f 70//103 71//103 67//103
f 70//104 69//104 71//104
f 69//105 68//105 71//105
