# Blender v2.78 (sub 0) OBJ File: 'coral2.blend'
# www.blender.org
mtllib coral2.mtl
o Cylinder_Cylinder.001
v 0.046092 0.073433 0.195803
v 0.515512 0.081428 0.349738
v 0.804900 0.086515 0.749223
v 0.804900 0.086515 1.242255
v 0.515512 0.081428 1.641740
v 0.046092 0.073433 1.795675
v -0.425144 0.065801 1.644223
v -0.717419 0.061293 1.243773
v -0.717419 0.061293 0.747705
v -0.425144 0.065801 0.347255
v 0.152165 1.060795 0.393017
v 0.511372 1.037659 0.501862
v 0.738293 1.025480 0.805529
v 0.738293 1.025480 1.185949
v 0.511372 1.037659 1.489616
v 0.152165 1.060795 1.598461
v -0.198401 1.086763 1.478149
v -0.411957 1.102979 1.179052
v -0.411957 1.102979 0.812426
v -0.198401 1.086763 0.513329
v -0.066961 1.781598 0.168861
v 0.415952 1.798754 0.332179
v 0.710262 1.808276 0.743511
v 0.710262 1.808276 1.247967
v 0.415952 1.798754 1.659299
v -0.066961 1.781598 1.822617
v -0.369780 1.768473 1.670235
v -0.526295 1.763138 1.254572
v -0.526295 1.763138 0.736907
v -0.369780 1.768473 0.321243
v 0.390187 2.445513 0.258665
v 0.825842 2.471852 0.399450
v 1.096140 2.483929 0.769630
v 1.095462 2.485258 1.223331
v 0.826837 2.473132 1.590939
v 0.387263 2.448919 1.731975
v -0.047585 2.414659 1.592780
v -0.320496 2.388438 1.229331
v -0.324858 2.384303 0.767322
v -0.048379 2.408932 0.396125
v 0.988921 2.664150 0.879380
v 0.705854 3.235934 0.175497
v 0.909199 2.885010 0.461080
v -0.042821 3.453999 0.370020
v -0.401947 3.505171 0.749162
v -0.386394 3.228235 1.245301
v -0.160581 3.249780 1.681274
v 0.488477 3.550375 1.733108
v 0.834917 3.135390 1.726004
v 1.055828 2.820087 1.393672
v 0.052127 3.845365 0.254013
v 0.200552 4.242871 0.394341
v -0.108983 4.159188 0.769489
v -0.595869 3.812080 1.294503
v -0.371289 3.824570 1.699765
v 0.015958 3.955388 1.811312
v 1.602397 2.659787 0.935362
v 1.394561 3.152794 0.256529
v 1.526554 2.882191 0.527774
v 1.168922 3.423693 1.815649
v 1.447552 3.131204 1.770116
v 1.649366 2.812398 1.442270
v 0.087047 3.829885 1.302094
v 1.206320 3.281674 1.027720
v 1.841295 2.804739 0.943329
v 1.700716 3.291818 0.250322
v 1.786916 3.025109 0.533471
v 1.463124 3.550145 1.830974
v 1.705916 3.251172 1.748918
v 1.904487 2.960172 1.434792
v 1.575081 3.468892 1.024536
v 0.357770 4.565455 0.193793
v 0.058307 4.524765 0.450992
v -0.180660 4.352643 0.802713
v -0.507618 3.990923 1.300879
v -0.310209 4.141323 1.717069
v 0.398162 4.712686 1.779765
v 0.457719 4.704469 1.243099
v 0.097097 4.916494 0.227511
v -0.181542 4.804465 0.487555
v -0.361315 4.577737 0.842563
v -0.076807 4.406653 1.298807
v 0.043474 4.643054 1.704673
v 0.118039 5.084711 1.810383
v 0.171481 5.085351 1.273587
v -0.395626 5.267451 0.243451
v -0.494741 4.951025 0.477552
v -0.486024 4.633219 0.893072
v -0.144909 4.690813 1.366035
v -0.139879 4.990772 1.779553
v -0.306841 5.463158 1.883907
v -0.308329 5.503038 1.285718
v 2.644835 3.020865 0.911417
v 2.083489 3.360484 0.329613
v 2.386217 3.195250 0.543074
v 1.659936 3.588336 1.846503
v 1.921158 3.382532 1.767942
v 2.630845 3.096527 1.445420
v 1.898005 3.642696 1.042299
v 2.770336 3.684270 1.526170
v 2.164957 3.940649 1.045221
v 2.452403 3.713111 1.211611
v 1.913692 3.897790 2.470635
v 2.441604 3.554606 2.441099
v 2.749589 3.629246 2.066703
v 2.110949 3.863144 1.792063
v 2.676351 3.905494 2.044827
v 2.345808 4.323018 1.611648
v 2.486387 4.112491 1.741697
v 2.105640 4.046252 2.816742
v 2.357408 3.784875 2.807779
v 2.659011 3.853256 2.498902
v 2.224916 3.986729 2.284799
v 1.706276 2.321734 1.417323
v 1.200725 2.184305 1.370730
v 1.637363 2.070332 1.140140
v 1.217074 2.174277 1.001941
v -0.589543 1.795748 1.258007
v -0.609228 1.795259 0.858769
v -0.410915 2.372245 1.225972
v -0.430884 2.367472 0.877575
v -0.746691 1.946948 1.162693
v -0.756150 1.946316 0.969966
v -0.627582 2.329583 1.138591
v -0.636634 2.325970 0.987346
v -0.784794 2.041277 1.095751
v -0.786654 2.040246 1.054787
v -0.774216 2.300264 1.069095
v -0.772927 2.297083 1.055898
v -0.458356 4.972983 1.399712
v 0.204910 3.084050 1.770455
v -0.773146 4.835271 1.042062
v -0.863784 5.105735 0.695819
v -0.865547 5.258883 0.539678
v 1.548012 1.791914 1.348902
v 1.170907 1.978294 1.432514
v 1.700371 1.919262 1.436120
v 1.201999 2.042586 1.175479
v 1.380421 1.752284 1.358327
v 1.213782 1.835763 1.394650
v 1.513041 1.810586 1.410778
v 1.083896 1.854851 1.295799
v 1.252729 1.680057 1.351407
v 0.455237 2.105321 0.099258
v 0.727684 0.567816 1.452323
v 2.456417 3.571983 0.877863
v 2.161330 3.768369 0.687938
v 2.727922 3.797647 0.092231
v 2.763937 3.760929 0.146385
v 2.828081 4.236494 0.464104
v 2.861929 4.187263 0.525044
v 2.973140 3.939822 0.339986
v 2.518117 4.059954 0.292996
v 2.857994 3.952094 -0.045801
v 2.860806 3.918274 0.026878
v 2.909238 4.308711 0.324803
v 2.927340 4.254157 0.372712
v 3.025430 4.057599 0.187717
v 2.661782 4.163965 0.147062
v 3.084998 4.310430 -0.421221
v 3.116427 4.267378 -0.384232
v 3.041717 4.382377 0.119736
v 3.068167 4.346291 0.127187
v 3.239236 4.296220 -0.135310
v 2.856519 4.362929 -0.127886
v 3.182920 4.698246 -0.560711
v 3.173317 4.624415 -0.440530
v 3.147160 4.577324 0.010594
v 3.141136 4.538754 0.007096
v 3.294317 4.564231 -0.221763
v 3.002453 4.612789 -0.204858
v 3.268321 4.849646 -0.440121
v 3.243442 4.819327 -0.414259
v 3.239598 4.809318 0.030849
v 3.228910 4.778789 0.007792
v 3.366138 4.776848 -0.206114
v 3.084473 4.830378 -0.197711
v 3.370087 5.202964 -0.173820
v -0.511905 5.195058 1.733413
v -0.748435 5.423648 1.881939
v -0.761625 5.417160 1.399225
v -1.089686 4.830213 1.575365
v -1.365661 4.691158 1.270455
v -1.439489 4.947194 0.948656
v -1.423041 5.021973 0.842952
v -1.135173 5.008080 1.858640
v -1.321319 5.132841 2.018806
v -1.302053 5.111729 1.602825
v -1.563110 4.863484 1.547518
vn 0.3013 0.1534 0.9411
vn 0.8078 -0.0238 -0.5890
vn 0.8043 -0.1246 0.5810
vn 0.3013 0.1534 -0.9411
vn 0.9975 0.0708 0.0000
vn 0.8029 0.0947 -0.5886
vn -0.3020 0.2179 -0.9281
vn -0.7793 0.2646 -0.5680
vn -0.9596 0.2814 0.0000
vn -0.7793 0.2646 0.5680
vn -0.3020 0.2179 0.9281
vn -0.3654 0.3275 0.8713
vn -0.8567 -0.2701 -0.4395
vn -0.3658 -0.3569 0.8595
vn 0.9994 0.0358 0.0000
vn -0.3658 -0.3569 -0.8595
vn -0.8567 -0.2701 0.4395
vn 0.8078 -0.0238 0.5890
vn 0.3010 -0.1847 -0.9355
vn -0.9853 -0.1707 0.0000
vn 0.3010 -0.1847 0.9355
vn -0.0692 0.9976 -0.0029
vn 0.8688 -0.4952 0.0013
vn -0.3630 0.3269 -0.8726
vn -0.8182 0.3750 0.4358
vn 0.7468 -0.4036 0.5285
vn -0.3322 0.3474 -0.8769
vn -0.3984 -0.9172 0.0090
vn 0.3157 -0.0916 0.9444
vn 0.7468 -0.4040 -0.5283
vn -0.8180 0.3754 -0.4358
vn -0.9232 0.0833 -0.3752
vn -0.2707 -0.0099 -0.9626
vn -0.7631 -0.0384 -0.6451
vn -0.9974 -0.0727 0.0000
vn -0.8387 -0.1227 0.5306
vn -0.2942 -0.1400 0.9454
vn -0.8811 0.2462 0.4038
vn -0.0888 -0.1590 0.9833
vn -0.7227 0.2881 -0.6283
vn -0.8276 -0.3268 0.4563
vn 0.6500 0.7583 -0.0495
vn 0.1436 -0.0850 0.9860
vn 0.7740 -0.1629 0.6119
vn 0.9362 0.3310 -0.1178
vn 0.9181 0.1436 -0.3695
vn 0.4832 -0.1755 -0.8578
vn 0.0424 -0.6539 -0.7554
vn 0.3381 -0.5680 0.7504
vn -0.0589 -0.7385 0.6716
vn 0.1813 0.9708 -0.1573
vn -0.1133 -0.1729 0.9784
vn 0.0426 -0.8769 -0.4787
vn -0.0349 -0.9556 0.2926
vn 0.2225 -0.9533 0.2042
vn -0.4234 0.8685 -0.2579
vn -0.4194 0.8928 -0.1643
vn 0.4480 -0.7543 -0.4799
vn 0.0756 -0.1461 0.9864
vn 0.4988 -0.8422 0.2048
vn 0.3078 -0.6198 -0.7219
vn -0.5650 -0.3659 -0.7395
vn 0.8991 -0.4057 0.1642
vn -0.8766 0.1413 -0.4599
vn 0.9191 -0.3925 -0.0360
vn -0.8107 0.0975 -0.5773
vn -0.2209 0.1040 0.9697
vn -0.7421 -0.2139 -0.6353
vn 0.6045 0.7720 -0.1963
vn -0.9233 0.3513 0.1550
vn -0.2066 -0.0030 0.9784
vn -0.6418 -0.4396 -0.6284
vn 0.7851 0.6001 -0.1535
vn -0.7601 0.6497 -0.0120
vn 0.7997 0.5951 0.0800
vn -0.4362 -0.7362 0.5175
vn -0.8187 -0.4150 0.3969
vn 0.6626 0.7468 0.0570
vn -0.3503 -0.5584 -0.7520
vn -0.7205 -0.5537 0.4175
vn -0.0336 -0.2271 0.9733
vn -0.3830 -0.7122 -0.5883
vn -0.5275 0.8373 -0.1437
vn 0.2226 -0.6425 -0.7332
vn -0.2647 0.9044 -0.3347
vn 0.1508 -0.6159 0.7733
vn -0.3707 0.9238 -0.0960
vn 0.2207 -0.8311 -0.5104
vn 0.0321 -0.2738 0.9612
vn -0.8862 0.4626 0.0257
vn 0.8077 0.3690 -0.4599
vn -0.4343 -0.7286 0.5296
vn 0.9712 -0.2354 0.0359
vn -0.6772 0.3881 -0.6251
vn -0.7630 0.6137 -0.2031
vn 0.1104 -0.8948 0.4326
vn 0.4079 0.8702 0.2762
vn 0.6660 -0.5764 0.4735
vn -0.3613 0.9176 -0.1658
vn 0.6995 0.6319 -0.3339
vn -0.5302 -0.7129 0.4590
vn 0.9633 0.2605 0.0650
vn 0.7699 0.4386 -0.4635
vn 0.9833 0.0547 -0.1735
vn 0.0795 0.0566 -0.9952
vn -0.1530 0.2525 0.9554
vn 0.9462 0.3037 -0.1113
vn -0.4805 0.1830 -0.8577
vn -0.1688 0.9856 -0.0058
vn 0.0054 0.0459 0.9989
vn -0.7401 0.2611 -0.6197
vn -0.5444 0.1749 0.8204
vn -0.1957 0.9807 -0.0051
vn -0.3911 0.1743 0.9037
vn -0.7036 -0.7097 0.0360
vn -0.6058 -0.6660 -0.4353
vn -0.9370 -0.3460 0.0478
vn -0.6353 0.1550 -0.7566
vn -0.2013 0.9790 -0.0309
vn -0.2917 -0.1411 0.9460
vn -0.1797 0.9667 -0.1821
vn -0.9989 0.0474 0.0069
vn -0.1354 -0.4042 0.9046
vn 0.0582 -0.1344 -0.9892
vn -0.1582 0.1741 0.9719
vn -0.4676 0.8812 -0.0700
vn 0.1552 -0.0153 0.9878
vn 0.9197 -0.2340 -0.3152
vn 0.0162 0.6796 0.7334
vn 0.9941 -0.0848 0.0680
vn 0.3297 -0.8360 0.4386
vn -0.0270 0.5208 0.8532
vn 0.0455 0.2191 -0.9746
vn 0.9042 -0.2853 -0.3178
vn 0.4815 -0.8222 -0.3036
vn 0.5994 0.3499 -0.7200
vn -0.1476 0.1675 0.9748
vn 0.0754 0.2843 -0.9558
vn 0.7678 0.3089 0.5613
vn 0.2745 -0.6038 -0.7484
vn 0.2499 0.4496 -0.8575
vn 0.7860 -0.4347 -0.4396
vn 0.9810 0.0802 0.1768
vn 0.4587 0.1415 0.8773
vn -0.5397 0.8369 0.0916
vn -0.6025 0.7822 -0.1588
vn 0.1881 -0.6547 -0.7321
vn 0.8485 -0.3156 0.4248
vn 0.7957 -0.5766 0.1856
vn 0.2029 0.7513 0.6280
vn 0.8527 -0.0168 0.5221
vn 0.3669 0.7545 0.5443
vn 0.7463 -0.6265 -0.2246
vn 0.9094 0.0902 0.4061
vn 0.4076 -0.7393 -0.5360
vn -0.7094 -0.0226 -0.7044
vn 0.5796 0.2004 0.7898
vn 0.1676 -0.7819 -0.6004
vn -0.7800 -0.1253 -0.6132
vn -0.4834 0.8608 0.1594
vn 0.5532 0.6151 0.5619
vn 0.6612 -0.7322 -0.1633
vn 0.9198 -0.3879 -0.0594
vn 0.8497 -0.2573 -0.4602
vn 0.8349 0.0146 0.5502
vn 0.9034 -0.2744 -0.3295
vn -0.8406 0.1442 -0.5222
vn -0.6567 0.5752 0.4877
vn 0.8638 0.0301 -0.5030
vn -0.7804 0.4890 -0.3896
vn -0.7819 0.2691 0.5623
vn 0.8673 -0.3469 0.3570
vn 0.8198 -0.2317 -0.5237
vn 0.8044 -0.3021 0.5115
vn 0.8405 -0.0487 0.5396
vn 0.8454 -0.4547 0.2802
vn -0.6837 0.5545 -0.4744
vn -0.6948 0.4994 0.5176
vn 0.9469 -0.3211 -0.0138
vn -0.5173 -0.7170 0.4673
vn -0.1347 0.9904 0.0324
vn -0.5177 -0.4808 -0.7077
vn -0.9731 -0.0871 -0.2131
vn -0.0604 -0.7512 -0.6573
vn 0.3332 -0.7659 0.5499
vn -0.4791 0.8773 -0.0302
vn 0.2732 -0.9497 0.1531
vn -0.0470 -0.7901 -0.6111
vn 0.3347 -0.3603 0.8707
vn -0.6798 0.7302 -0.0685
vn -0.0903 -0.8499 0.5191
vn -0.6916 0.7218 0.0249
vn -0.8081 -0.5370 -0.2419
vn -0.1040 -0.8396 0.5332
vn -0.0895 -0.8731 0.4792
usemtl Material.002
s off
f 6//1 5//1 15//1 16//1
f 13//2 12//2 22//2 23//2
f 5//3 4//3 145//3
f 2//4 1//4 11//4 12//4
f 4//5 3//5 13//5 14//5
f 3//6 2//6 12//6 13//6
f 1//7 10//7 20//7 11//7
f 10//8 9//8 19//8 20//8
f 9//9 8//9 18//9 19//9
f 7//10 17//10 18//10 8//10
f 7//11 6//11 16//11 17//11
f 27//12 26//12 36//12 37//12
f 20//13 19//13 29//13 30//13
f 17//14 16//14 26//14 27//14
f 14//15 13//15 23//15 24//15
f 11//16 20//16 30//16 21//16
f 18//17 17//17 27//17 28//17
f 15//18 14//18 24//18 25//18
f 12//19 11//19 21//19 22//19
f 19//20 18//20 28//20 29//20
f 16//21 15//21 25//21 26//21
f 32//22 31//22 40//22 39//22 38//22 37//22 36//22 35//22 34//22 33//22
f 24//23 23//23 33//23 34//23
f 21//24 30//24 40//24 31//24
f 28//25 27//25 37//25 38//25
f 25//26 24//26 34//26 35//26
f 21//27 31//27 144//27
f 29//28 28//28 118//28 119//28
f 26//29 25//29 35//29 36//29
f 23//30 22//30 32//30 33//30
f 30//31 29//31 39//31 40//31
f 45//32 46//32 54//32 53//32
f 42//33 31//33 40//33 44//33
f 44//34 40//34 39//34 45//34
f 45//35 39//35 38//35 46//35
f 46//36 38//36 37//36 47//36
f 47//37 37//37 131//37
f 54//38 55//38 76//38 75//38
f 47//39 48//39 56//39 55//39
f 44//40 45//40 53//40 52//40
f 46//41 47//41 55//41 54//41
f 48//42 42//42 51//42 63//42 56//42
f 48//43 36//43 35//43 49//43
f 49//44 35//44 34//44 50//44
f 50//45 34//45 33//45 41//45
f 41//46 33//46 32//46 43//46
f 43//47 32//47 31//47 42//47
f 43//48 42//48 58//48 59//48
f 61//49 62//49 70//49 69//49
f 49//50 50//50 62//50 61//50
f 42//51 48//51 60//51 64//51 58//51
f 48//52 49//52 61//52 60//52
f 41//53 43//53 59//53 57//53
f 50//54 41//54 57//54 62//54
f 70//55 65//55 93//55 98//55
f 58//56 64//56 71//56 66//56
f 64//57 60//57 68//57 71//57
f 57//58 59//58 67//58 65//58
f 60//59 61//59 69//59 68//59
f 62//60 57//60 65//60 70//60
f 59//61 58//61 66//61 67//61
f 72//62 73//62 80//62 79//62
f 56//63 63//63 78//63 77//63
f 51//64 52//64 73//64 72//64
f 63//65 51//65 72//65 78//65
f 53//66 54//66 75//66 74//66
f 55//67 56//67 77//67 76//67
f 52//68 53//68 74//68 73//68
f 85//69 79//69 86//69 92//69
f 74//70 75//70 82//70 81//70
f 76//71 77//71 84//71 83//71
f 73//72 74//72 81//72 80//72
f 78//73 72//73 79//73 85//73
f 75//74 76//74 83//74 82//74
f 77//75 78//75 85//75 84//75
f 88//76 89//76 130//76 132//76
f 82//77 83//77 90//77 89//77
f 84//78 85//78 92//78 91//78
f 79//79 80//79 87//79 86//79
f 81//80 82//80 89//80 88//80
f 83//81 84//81 91//81 90//81
f 80//82 81//82 88//82 87//82
f 99//83 96//83 103//83 106//83
f 67//84 66//84 94//84 95//84
f 66//85 71//85 99//85 94//85
f 69//86 70//86 98//86 97//86
f 71//87 68//87 96//87 99//87
f 65//88 67//88 95//88 93//88
f 68//89 69//89 97//89 96//89
f 101//90 106//90 113//90 108//90
f 93//91 95//91 146//91 102//91 100//91
f 96//92 97//92 104//92 103//92
f 98//93 93//93 100//93 105//93
f 94//94 147//94 153//94 148//94
f 94//95 99//95 106//95 101//95 147//95
f 97//96 98//96 105//96 104//96
f 107//97 109//97 108//97 113//97 110//97 111//97 112//97
f 104//98 105//98 112//98 111//98
f 106//99 103//99 110//99 113//99
f 100//100 102//100 109//100 107//100
f 103//101 104//101 111//101 110//101
f 105//102 100//102 107//102 112//102
f 102//103 101//103 108//103 109//103
f 116//104 57//104 62//104 114//104
f 115//105 50//105 62//105 114//105
f 116//106 57//106 41//106 117//106
f 117//107 41//107 50//107 115//107
f 121//108 119//108 123//108 125//108
f 38//109 39//109 121//109 120//109
f 28//110 38//110 120//110 118//110
f 39//111 29//111 119//111 121//111
f 122//112 124//112 128//112 126//112
f 120//113 121//113 125//113 124//113
f 118//114 120//114 124//114 122//114
f 119//115 118//115 122//115 123//115
f 87//116 88//116 132//116 133//116
f 123//117 122//117 126//117 127//117
f 125//118 123//118 127//118 129//118
f 124//119 125//119 129//119 128//119
f 37//120 36//120 131//120
f 92//121 86//121 134//121 181//121
f 126//122 128//122 129//122 127//122
f 90//123 91//123 180//123 179//123
f 115//124 114//124 137//124 136//124
f 48//125 47//125 131//125
f 181//126 134//126 185//126 188//126
f 36//127 48//127 131//127
f 116//128 114//128 137//128 135//128
f 116//129 117//129 138//129 135//129
f 117//130 115//130 136//130 138//130
f 135//131 137//131 141//131 139//131
f 135//132 138//132 142//132 139//132
f 136//133 137//133 141//133 140//133
f 138//134 136//134 140//134 142//134
f 139//135 141//135 143//135
f 142//136 140//136 143//136
f 139//137 142//137 143//137
f 140//138 141//138 143//138
f 14//139 15//139 145//139
f 22//140 21//140 144//140
f 31//141 32//141 144//141
f 32//142 22//142 144//142
f 4//143 14//143 145//143
f 15//144 5//144 145//144
f 153//145 150//145 156//145 159//145
f 147//146 101//146 150//146 153//146
f 95//147 94//147 148//147 149//147
f 102//148 146//148 152//148 151//148
f 146//149 95//149 149//149 152//149
f 101//150 102//150 151//150 150//150
f 157//151 158//151 164//151 163//151
f 150//152 151//152 157//152 156//152
f 152//153 149//153 155//153 158//153
f 151//154 152//154 158//154 157//154
f 149//155 148//155 154//155 155//155
f 148//156 153//156 159//156 154//156
f 162//157 163//157 169//157 168//157
f 155//158 154//158 160//158 161//158
f 154//159 159//159 165//159 160//159
f 159//160 156//160 162//160 165//160
f 156//161 157//161 163//161 162//161
f 158//162 155//162 161//162 164//162
f 167//163 166//163 172//163 173//163
f 164//164 161//164 167//164 170//164
f 163//165 164//165 170//165 169//165
f 161//166 160//166 166//166 167//166
f 160//167 165//167 171//167 166//167
f 165//168 162//168 168//168 171//168
f 176//169 173//169 178//169
f 166//170 171//170 177//170 172//170
f 171//171 168//171 174//171 177//171
f 168//172 169//172 175//172 174//172
f 170//173 167//173 173//173 176//173
f 169//174 170//174 176//174 175//174
f 175//175 176//175 178//175
f 173//176 172//176 178//176
f 172//177 177//177 178//177
f 177//178 174//178 178//178
f 174//179 175//179 178//179
f 89//180 90//180 179//180 130//180
f 91//181 92//181 181//181 180//181
f 86//182 87//182 133//182 134//182
f 185//183 184//183 189//183
f 134//184 133//184 184//184 185//184
f 130//185 179//185 186//185 182//185
f 180//186 181//186 188//186 187//186
f 132//187 130//187 182//187 183//187
f 133//188 132//188 183//188 184//188
f 179//189 180//189 187//189 186//189
f 187//190 188//190 189//190
f 182//191 186//191 189//191
f 188//192 185//192 189//192
f 184//193 183//193 189//193
f 186//194 187//194 189//194
f 183//195 182//195 189//195
