# Blender v2.78 (sub 0) OBJ File: 'fish3.blend'
# www.blender.org
mtllib fish3.mtl
o Cube
v 0.102296 1.562964 -0.066574
v 0.089563 1.582078 0.201638
v -0.090370 1.583419 0.198906
v -0.090572 1.557418 -0.057506
v 0.096342 1.829375 -0.067859
v 0.090394 1.845096 0.197546
v -0.093986 1.842789 0.176722
v -0.088845 1.838971 -0.065863
v -0.009078 1.846715 0.187549
v -0.009038 1.583757 0.199969
v 0.157620 1.439367 -0.187118
v -0.140424 1.437404 -0.183915
v 0.182508 2.327768 -0.188046
v -0.191968 2.332378 -0.188079
v 0.219872 1.300266 -0.316336
v -0.197114 1.302296 -0.319759
v 0.230579 2.500329 -0.315880
v -0.249424 2.501490 -0.316646
v 0.271710 1.184531 -0.445335
v -0.242333 1.190010 -0.454183
v 0.283097 2.644463 -0.443575
v -0.262474 2.629096 -0.444775
v 0.253281 1.154433 -1.588811
v -0.290822 1.159295 -1.585581
v 0.262139 2.627759 -1.562482
v -0.260393 2.636618 -1.567825
v 0.224495 1.270860 -1.699073
v -0.257540 1.273166 -1.697239
v 0.232124 2.533870 -1.684989
v -0.234883 2.538244 -1.687807
v 0.193102 1.404093 -1.808056
v -0.222224 1.403945 -1.807979
v 0.200804 2.431563 -1.807846
v -0.208365 2.431404 -1.807905
v 0.163859 1.528410 -1.909209
v -0.189358 1.525986 -1.910777
v 0.169203 2.320325 -1.922603
v -0.181797 2.315866 -1.919650
v 0.132008 1.669532 -2.009082
v -0.154458 1.664936 -2.012657
v 0.141518 2.234346 -2.036309
v -0.158253 2.225729 -2.031045
v -0.009039 1.951629 -2.140532
v -0.009038 1.964420 -2.579086
v 0.283097 1.651056 -2.251389
v -0.301175 1.651056 -2.251389
v 0.283098 2.252203 -2.251388
v -0.301175 2.252203 -2.251389
v 0.283098 1.557254 -2.370773
v -0.301175 1.557254 -2.370773
v 0.283098 2.371586 -2.370772
v -0.301175 2.371586 -2.370773
v 0.160364 1.668977 -2.490156
v -0.178441 1.668977 -2.490157
v 0.160364 2.259864 -2.490156
v -0.178441 2.259863 -2.490156
v 0.325501 1.538840 -0.570707
v 0.328406 1.807996 -0.570648
v 0.320830 1.538307 -1.048354
v 0.323280 1.807407 -1.047366
v -0.301123 1.558566 -0.637220
v -0.308534 1.806836 -0.634649
v -0.319591 1.559476 -1.066974
v -0.307751 1.806882 -1.067422
vn 0.0127 -0.9961 0.0877
vn 0.0222 0.9988 -0.0435
vn 0.9994 0.0100 0.0343
vn -0.0649 0.0469 0.9968
vn -0.9999 -0.0040 -0.0097
vn 0.8710 -0.0133 0.4911
vn 0.0033 0.6003 0.7998
vn 0.0094 0.2376 0.9713
vn -0.8718 -0.0317 0.4888
vn 0.0284 -0.7113 0.7023
vn -0.9762 -0.0278 0.2150
vn 0.9196 -0.0156 0.3926
vn -0.9193 -0.0454 0.3910
vn -0.0003 -0.6950 0.7190
vn -0.0061 1.0000 -0.0040
vn -0.0147 -0.7562 0.6542
vn -0.0109 0.6863 0.7273
vn 0.9267 -0.0080 0.3758
vn 0.9695 -0.0022 -0.2451
vn 0.9924 -0.0045 -0.1229
vn -0.9976 0.0251 -0.0640
vn -0.0099 -0.9996 0.0270
vn -0.9662 0.0165 -0.2571
vn -0.9694 0.0212 -0.2446
vn -0.0084 -0.6938 -0.7201
vn 0.0156 0.7834 -0.6214
vn -0.0070 0.7067 -0.7074
vn -0.0032 -0.6397 -0.7687
vn 0.0058 0.7578 -0.6525
vn 0.9651 -0.0048 -0.2617
vn -0.9643 -0.0027 -0.2649
vn 0.9623 -0.0089 -0.2717
vn -0.9637 0.0101 -0.2667
vn 0.0036 -0.6377 -0.7703
vn -0.6263 -0.0298 -0.7790
vn 0.0129 -0.5845 -0.8113
vn -0.0236 0.7876 -0.6158
vn 0.9618 -0.0187 -0.2729
vn -0.0000 0.3460 0.9382
vn 0.0180 -0.4149 -0.9097
vn -0.0267 0.3583 -0.9332
vn 0.6279 -0.0480 -0.7768
vn -1.0000 -0.0000 -0.0000
vn 0.3548 -0.0000 0.9349
vn -0.3548 -0.0000 0.9349
vn 0.0000 -0.3460 0.9382
vn 0.0000 -0.7301 -0.6833
vn -0.0000 -0.7863 0.6178
vn -0.0000 0.7071 0.7071
vn 1.0000 -0.0000 0.0000
vn 0.0000 0.2882 -0.9576
vn 0.0000 0.7301 -0.6833
vn 0.6973 -0.0000 -0.7168
vn -0.6973 0.0000 -0.7168
vn 0.4648 0.0000 -0.8854
vn -0.4648 0.0000 -0.8854
vn 0.0000 -0.2882 -0.9576
vn 0.9999 -0.0099 -0.0103
vn 0.9877 -0.1561 -0.0111
vn 0.9255 -0.0080 0.3787
vn 0.9980 0.0602 -0.0170
vn -0.9998 0.0088 0.0205
vn -0.9902 -0.1324 0.0450
vn -0.9567 -0.0177 0.2905
vn -0.9984 0.0562 -0.0016
usemtl Material
s off
f 1//1 2//1 10//1 3//1 4//1
f 5//2 8//2 7//2 9//2 6//2
f 1//3 5//3 6//3 2//3
f 2//4 6//4 9//4 7//4 3//4 10//4
f 3//5 7//5 8//5 4//5
f 5//6 1//6 11//6 13//6
f 14//7 13//7 17//7 18//7
f 8//8 5//8 13//8 14//8
f 4//9 8//9 14//9 12//9
f 1//10 4//10 12//10 11//10
f 16//11 18//11 22//11 20//11
f 13//12 11//12 15//12 17//12
f 12//13 14//13 18//13 16//13
f 11//14 12//14 16//14 15//14
f 22//15 21//15 25//15 26//15
f 15//16 16//16 20//16 19//16
f 18//17 17//17 21//17 22//17
f 17//18 15//18 19//18 21//18
f 25//19 23//19 27//19 29//19
f 23//20 25//20 60//20 59//20
f 26//21 24//21 63//21 64//21
f 19//22 20//22 24//22 23//22
f 28//23 30//23 34//23 32//23
f 24//24 26//24 30//24 28//24
f 23//25 24//25 28//25 27//25
f 26//26 25//26 29//26 30//26
f 34//27 33//27 37//27 38//27
f 27//28 28//28 32//28 31//28
f 30//29 29//29 33//29 34//29
f 29//30 27//30 31//30 33//30
f 36//31 38//31 42//31 40//31
f 33//32 31//32 35//32 37//32
f 32//33 34//33 38//33 36//33
f 31//34 32//34 36//34 35//34
f 40//35 42//35 43//35
f 35//36 36//36 40//36 39//36
f 38//37 37//37 41//37 42//37
f 37//38 35//38 39//38 41//38
f 43//39 47//39 48//39
f 39//40 40//40 43//40
f 42//41 41//41 43//41
f 41//42 39//42 43//42
f 46//43 48//43 52//43 50//43
f 43//44 45//44 47//44
f 43//45 48//45 46//45
f 43//46 46//46 45//46
f 49//47 50//47 54//47 53//47
f 45//48 46//48 50//48 49//48
f 48//49 47//49 51//49 52//49
f 47//50 45//50 49//50 51//50
f 56//51 55//51 44//51
f 52//52 51//52 55//52 56//52
f 51//53 49//53 53//53 55//53
f 50//54 52//54 56//54 54//54
f 55//55 53//55 44//55
f 54//56 56//56 44//56
f 53//57 54//57 44//57
f 58//58 57//58 59//58 60//58
f 19//59 23//59 59//59 57//59
f 21//60 19//60 57//60 58//60
f 25//61 21//61 58//61 60//61
f 61//62 62//62 64//62 63//62
f 24//63 20//63 61//63 63//63
f 20//64 22//64 62//64 61//64
f 22//65 26//65 64//65 62//65
