# Blender v2.78 (sub 0) OBJ File: 'floor.blend'
# www.blender.org
mtllib floor.mtl
o Plane
v -6.997194 0.000000 3.008287
v 6.997194 0.000000 3.008287
v -6.997194 0.000000 -6.997194
v 6.997194 0.000000 -6.997194
v -6.997194 0.000000 -1.994453
v 0.000000 0.000000 3.008287
v 6.997194 0.000000 -1.994454
v 0.000000 0.000000 -6.997194
v 0.000000 0.000000 -1.994454
v -6.997194 0.000000 0.506917
v 3.498597 0.000000 3.008287
v 6.997194 0.000000 -4.495824
v -3.498597 0.000000 -6.997194
v -6.997194 0.000000 -4.495824
v -3.498597 0.000000 3.008287
v 6.997194 0.000000 0.506917
v 3.498597 0.000000 -6.997194
v 0.000000 -0.067168 -4.495824
v 0.000000 0.066049 0.506917
v -3.498597 0.000000 -1.994454
v 3.498597 0.000000 -1.994454
v 3.498597 -0.066049 0.506917
v -3.498597 -0.154615 0.506917
v -3.498597 0.192962 -4.495824
v 3.498597 0.022389 -4.495824
v -6.997194 0.000000 1.757602
v 5.247895 0.000000 3.008287
v 6.997194 0.000000 -5.746509
v -5.247895 0.000000 -6.997194
v -6.997194 0.000000 -3.245139
v -1.749298 0.000000 3.008287
v 6.997194 0.000000 -0.743769
v 1.749298 0.000000 -6.997194
v 0.000000 -0.078363 -5.746509
v 0.000000 0.033025 -0.743769
v -5.247895 0.041217 -1.994453
v 1.749298 0.000000 -1.994454
v -6.997194 0.000000 -0.743768
v 1.749298 0.000000 3.008287
v 6.997194 0.000000 -3.245139
v -1.749298 0.000000 -6.997194
v -6.997194 0.000000 -5.746509
v -5.247895 0.000000 3.008287
v 6.997194 0.000000 1.757602
v 5.247895 0.000000 -6.997194
v 0.000000 -0.011706 -3.245139
v 0.000000 0.033025 1.757602
v -1.749298 0.043756 -1.994454
v 5.247895 0.000000 -1.994454
v 3.498597 -0.033025 -0.743769
v 3.498597 0.056221 1.757602
v 1.749298 -0.000000 0.506917
v 5.247895 0.011598 0.506917
v -3.498597 -0.077308 -0.743768
v -3.498597 -0.077308 1.757602
v -5.247895 -0.077308 0.506917
v -1.749298 -0.044283 0.506917
v -3.498597 0.096481 -5.746509
v -3.498597 0.096481 -3.245139
v -5.247895 0.149403 -4.495824
v -1.749298 0.062897 -4.495824
v 3.498597 0.011195 -5.746509
v 3.498597 0.078363 -3.245139
v 1.749298 -0.067168 -4.495824
v 5.247895 0.046476 -4.495824
v 5.247895 0.005597 -3.245139
v 1.749298 -0.011195 -3.245139
v 1.749298 -0.011195 -5.746509
v -1.749298 0.031449 -3.245139
v -5.247895 0.136443 -3.245139
v -5.247895 0.136443 -5.746509
v -1.749298 -0.022141 1.757602
v -5.247895 -0.103700 1.757602
v -5.247895 -0.082687 -0.743768
v 5.247895 0.072734 1.757602
v 1.749298 -0.000000 1.757602
v 1.749298 -0.000000 -0.743769
v 5.247895 -0.016512 -0.743769
v -1.749298 -0.022141 -0.743769
v -1.749298 0.031449 -5.746509
v 5.247895 -0.029684 -5.746509
v -7.007101 -0.334560 3.022150
v 6.990242 -0.334785 2.998554
v -6.984159 -0.334243 -6.978965
v 7.000026 -0.334959 -7.001161
v -6.990692 -0.334612 -2.009104
v 0.001053 -0.334980 3.005352
v 6.997715 -0.334990 -1.995926
v -0.002035 -0.334867 -7.006324
v -0.002576 -0.334980 -1.992879
v -7.013490 -0.334591 0.505516
v 3.502073 -0.334744 2.995906
v 6.993902 -0.334969 -4.493473
v -3.503607 -0.334090 -6.973107
v -6.969917 -0.333886 -4.495824
v -3.494702 -0.334448 3.027027
v 6.993401 -0.334918 0.512887
v 3.497718 -0.334990 -6.998431
v -0.008251 -0.402035 -4.491366
v 0.003169 -0.268930 0.506917
v -3.499527 -0.334356 -2.015177
v 3.498597 -0.334908 -2.002275
v 3.500488 -0.400916 0.515852
v -3.493628 -0.489574 0.506221
v -3.507737 -0.141905 -4.495824
v 3.503985 -0.312519 -4.490149
v -7.010802 -0.334683 1.762765
v 5.245206 -0.334714 2.994802
v 6.997807 -0.334980 -5.743401
v -5.243284 -0.334059 -6.972545
v -6.975070 -0.334182 -3.252367
v -1.744023 -0.334898 3.014206
v 6.998216 -0.334990 -0.743002
v 1.753582 -0.334918 -7.003185
v -0.005143 -0.413281 -5.751140
v 0.001063 -0.301965 -0.742296
v -5.247435 -0.293149 -2.014901
v 1.749871 -0.334990 -1.995926
v -7.006824 -0.334765 -0.751692
v 1.750403 -0.334939 3.002316
v 6.994433 -0.334969 -3.248247
v -1.757661 -0.334847 -6.991786
v -6.977033 -0.334233 -5.736530
v -5.251586 -0.334438 3.027313
v 6.989679 -0.334908 1.756835
v 5.247364 -0.334980 -7.000414
v -0.006196 -0.346583 -3.239045
v 0.002116 -0.301955 1.754667
v -1.749258 -0.291141 -2.002346
v 5.246811 -0.334949 -1.999658
v 3.498086 -0.367994 -0.747797
v 3.502349 -0.278728 1.761620
v 1.741958 -0.334898 0.509892
v 5.250492 -0.323269 0.515872
v -3.494855 -0.411837 -0.761006
v -3.493914 -0.411960 1.772007
v -5.258988 -0.412113 0.505516
v -1.733472 -0.378905 0.506917
v -3.505682 -0.237844 -5.726532
v -3.505620 -0.237997 -3.262294
v -5.234073 -0.185311 -4.495824
v -1.768488 -0.271540 -4.493605
v 3.500427 -0.323795 -5.745711
v 3.502104 -0.256617 -3.245946
v 1.757866 -0.402025 -4.491356
v 5.244685 -0.288473 -4.491223
v 5.243611 -0.329352 -3.248993
v 1.755750 -0.346072 -3.239148
v 1.755719 -0.346072 -5.752500
v -1.760688 -0.303306 -3.250618
v -5.238674 -0.198148 -3.258818
v -5.238674 -0.198025 -5.730089
v -1.738748 -0.356917 1.763521
v -5.255287 -0.438454 1.767938
v -5.255287 -0.417339 -0.756855
v 5.246791 -0.262256 1.759023
v 1.747254 -0.334990 1.757602
v 1.742980 -0.334939 -0.743769
v 5.251054 -0.351492 -0.745200
v -1.738748 -0.356855 -0.752612
v -1.763867 -0.303122 -5.738105
v 5.246832 -0.364653 -5.742654
vn -0.0085 0.9999 0.0119
vn 0.0314 0.9993 0.0187
vn -0.0033 0.9999 0.0131
vn -0.0047 1.0000 0.0066
vn 0.0094 0.9999 0.0132
vn 0.0028 0.9988 -0.0488
vn 0.0241 0.9994 -0.0244
vn 0.0102 0.9967 0.0802
vn 0.0145 0.9997 -0.0203
vn -0.0473 0.9989 0.0043
vn 0.0114 0.9956 -0.0927
vn -0.0010 0.9990 0.0437
vn 0.0494 0.9987 -0.0096
vn -0.0064 1.0000 0.0000
vn -0.0511 0.9977 -0.0447
vn 0.0149 0.9998 0.0163
vn 0.0139 0.9999 -0.0060
vn 0.0208 0.9992 0.0335
vn 0.0016 1.0000 0.0022
vn -0.0001 0.9990 -0.0445
vn -0.0001 1.0000 -0.0092
vn -0.0256 0.9993 0.0268
vn -0.0192 0.9992 0.0358
vn -0.0192 0.9997 0.0179
vn -0.0320 0.9993 0.0179
vn 0.0556 0.9971 0.0510
vn 0.0061 0.9994 0.0336
vn 0.0248 0.9996 -0.0096
vn -0.0814 0.9967 0.0052
vn -0.0507 0.9980 0.0380
vn 0.0231 0.9968 0.0764
vn -0.0389 0.9978 -0.0544
vn -0.0814 0.9967 -0.0052
vn -0.0010 0.9990 -0.0437
vn -0.0472 0.9981 -0.0397
vn -0.0158 0.9991 -0.0397
vn -0.0158 0.9999 0.0044
vn 0.0517 0.9986 0.0105
vn 0.0296 0.9987 -0.0414
vn -0.0075 0.9974 -0.0722
vn 0.0118 0.9987 0.0495
vn 0.0457 0.9990 -0.0021
vn 0.0205 0.9994 0.0287
vn -0.0268 0.9970 -0.0731
vn -0.0047 0.9987 0.0515
vn 0.0208 0.9994 0.0291
vn 0.0283 0.9995 0.0132
vn -0.0161 0.9996 0.0225
vn 0.0094 0.9999 -0.0132
vn 0.0283 0.9995 -0.0132
vn -0.0047 0.9998 0.0198
vn -0.0269 0.9996 0.0020
vn -0.0014 0.9999 -0.0112
vn -0.0282 0.9980 0.0571
vn -0.0472 0.9981 0.0397
vn -0.0473 0.9989 -0.0043
vn 0.0186 0.9985 -0.0511
vn 0.0556 0.9971 -0.0510
vn 0.0684 0.9975 -0.0170
vn 0.0117 0.9999 0.0074
vn 0.0048 0.9994 -0.0349
vn 0.0048 0.9995 -0.0304
vn 0.0085 -0.9999 -0.0118
vn -0.0315 -0.9993 -0.0187
vn 0.0032 -0.9999 -0.0131
vn 0.0047 -1.0000 -0.0066
vn -0.0094 -0.9999 -0.0132
vn -0.0029 -0.9988 0.0489
vn -0.0241 -0.9994 0.0244
vn -0.0102 -0.9967 -0.0800
vn -0.0145 -0.9997 0.0203
vn 0.0474 -0.9989 -0.0043
vn -0.0115 -0.9956 0.0929
vn 0.0010 -0.9990 -0.0440
vn -0.0494 -0.9987 0.0097
vn 0.0064 -1.0000 0.0000
vn 0.0512 -0.9977 0.0448
vn -0.0149 -0.9998 -0.0164
vn -0.0140 -0.9999 0.0060
vn -0.0208 -0.9992 -0.0336
vn -0.0016 -1.0000 -0.0022
vn 0.0001 -0.9990 0.0444
vn 0.0002 -1.0000 0.0091
vn 0.0255 -0.9993 -0.0269
vn 0.0191 -0.9992 -0.0357
vn 0.0190 -0.9997 -0.0177
vn 0.0320 -0.9993 -0.0178
vn -0.0556 -0.9971 -0.0513
vn -0.0061 -0.9994 -0.0337
vn -0.0249 -0.9996 0.0097
vn 0.0817 -0.9966 -0.0050
vn 0.0508 -0.9980 -0.0378
vn -0.0233 -0.9968 -0.0766
vn 0.0389 -0.9978 0.0544
vn 0.0817 -0.9966 0.0049
vn 0.0010 -0.9990 0.0440
vn 0.0471 -0.9981 0.0395
vn 0.0158 -0.9991 0.0397
vn 0.0157 -0.9999 -0.0044
vn -0.0516 -0.9986 -0.0103
vn -0.0296 -0.9987 0.0414
vn 0.0074 -0.9974 0.0720
vn -0.0119 -0.9987 -0.0495
vn -0.0456 -0.9990 0.0020
vn -0.0204 -0.9994 -0.0287
vn 0.0269 -0.9969 0.0734
vn 0.0047 -0.9986 -0.0519
vn -0.0208 -0.9994 -0.0292
vn -0.0284 -0.9995 -0.0132
vn 0.0161 -0.9996 -0.0226
vn -0.0094 -0.9999 0.0132
vn -0.0284 -0.9995 0.0132
vn -0.0282 -0.9995 -0.0130
vn 0.0047 -0.9998 -0.0198
vn 0.0269 -0.9996 -0.0019
vn 0.0014 -0.9999 0.0112
vn 0.0283 -0.9980 -0.0572
vn 0.0471 -0.9981 -0.0395
vn 0.0474 -0.9989 0.0042
vn -0.0185 -0.9985 0.0510
vn -0.0557 -0.9971 0.0512
vn -0.0682 -0.9975 0.0168
vn -0.0117 -0.9999 -0.0073
vn -0.0048 -0.9994 0.0349
vn -0.0048 -0.9995 0.0304
vn -0.9994 0.0352 0.0015
vn -0.0011 -0.0346 0.9994
vn 1.0000 0.0051 0.0009
vn 0.0018 -0.0640 -0.9979
vn -0.9991 -0.0426 -0.0063
vn 0.0025 0.0045 1.0000
vn 1.0000 0.0023 -0.0002
vn 0.0009 0.0226 -0.9997
vn -0.9992 0.0387 -0.0027
vn 0.0018 -0.0274 0.9996
vn 1.0000 -0.0090 -0.0002
vn -0.0053 -0.0439 -0.9990
vn -0.9975 -0.0708 0.0029
vn 0.0001 0.0564 0.9984
vn 0.9999 -0.0169 0.0015
vn -0.0006 0.0067 -1.0000
vn -0.9990 0.0446 0.0011
vn 0.0003 -0.0386 0.9993
vn 1.0000 -0.0040 0.0016
vn -0.0002 -0.0727 -0.9974
vn -0.9973 -0.0737 -0.0021
vn 0.0037 0.0369 0.9993
vn 1.0000 -0.0041 0.0019
vn 0.0014 0.0108 -0.9999
vn -1.0000 0.0049 -0.0064
vn 0.0009 -0.0133 0.9999
vn 1.0000 -0.0033 -0.0013
vn -0.0041 0.0056 -1.0000
vn -0.9988 -0.0495 0.0029
vn -0.0015 0.0491 0.9988
vn 0.9998 -0.0216 -0.0002
vn -0.0002 0.0107 -0.9999
usemtl None
s off
f 81//1 28//1 4//1 45//1
f 80//2 34//2 8//2 41//2
f 79//3 35//3 9//3 48//3
f 78//4 32//4 7//4 49//4
f 77//5 50//5 21//5 37//5
f 76//6 51//6 22//6 52//6
f 75//7 44//7 16//7 53//7
f 74//8 54//8 20//8 36//8
f 73//9 55//9 23//9 56//9
f 72//10 47//10 19//10 57//10
f 71//11 58//11 13//11 29//11
f 70//12 59//12 24//12 60//12
f 69//13 46//13 18//13 61//13
f 68//14 62//14 17//14 33//14
f 67//15 63//15 25//15 64//15
f 66//16 40//16 12//16 65//16
f 63//17 66//17 65//17 25//17
f 21//18 49//18 66//18 63//18
f 49//19 7//19 40//19 66//19
f 46//20 67//20 64//20 18//20
f 9//21 37//21 67//21 46//21
f 37//22 21//22 63//22 67//22
f 34//23 68//23 33//23 8//23
f 18//24 64//24 68//24 34//24
f 64//25 25//25 62//25 68//25
f 59//26 69//26 61//26 24//26
f 20//27 48//27 69//27 59//27
f 48//28 9//28 46//28 69//28
f 30//29 70//29 60//29 14//29
f 5//30 36//30 70//30 30//30
f 36//31 20//31 59//31 70//31
f 42//32 71//32 29//32 3//32
f 14//33 60//33 71//33 42//33
f 60//34 24//34 58//34 71//34
f 55//35 72//35 57//35 23//35
f 15//36 31//36 72//36 55//36
f 31//37 6//37 47//37 72//37
f 26//38 73//38 56//38 10//38
f 1//39 43//39 73//39 26//39
f 43//40 15//40 55//40 73//40
f 38//41 74//41 36//41 5//41
f 10//42 56//42 74//42 38//42
f 56//43 23//43 54//43 74//43
f 51//44 75//44 53//44 22//44
f 11//45 27//45 75//45 51//45
f 27//46 2//46 44//46 75//46
f 47//47 76//47 52//47 19//47
f 6//5 39//5 76//5 47//5
f 39//48 11//48 51//48 76//48
f 35//49 77//49 37//49 9//49
f 19//50 52//50 77//50 35//50
f 52//47 22//47 50//47 77//47
f 50//51 78//51 49//51 21//51
f 22//52 53//52 78//52 50//52
f 53//53 16//53 32//53 78//53
f 54//54 79//54 48//54 20//54
f 23//55 57//55 79//55 54//55
f 57//56 19//56 35//56 79//56
f 58//57 80//57 41//57 13//57
f 24//58 61//58 80//58 58//58
f 61//59 18//59 34//59 80//59
f 62//60 81//60 45//60 17//60
f 25//61 65//61 81//61 62//61
f 65//62 12//62 28//62 81//62
f 162//63 126//63 85//63 109//63
f 161//64 122//64 89//64 115//64
f 160//65 129//65 90//65 116//65
f 159//66 130//66 88//66 113//66
f 158//67 118//67 102//67 131//67
f 157//68 133//68 103//68 132//68
f 156//69 134//69 97//69 125//69
f 155//70 117//70 101//70 135//70
f 154//71 137//71 104//71 136//71
f 153//72 138//72 100//72 128//72
f 152//73 110//73 94//73 139//73
f 151//74 141//74 105//74 140//74
f 150//75 142//75 99//75 127//75
f 149//76 114//76 98//76 143//76
f 148//77 145//77 106//77 144//77
f 147//78 146//78 93//78 121//78
f 144//79 106//79 146//79 147//79
f 102//80 144//80 147//80 130//80
f 130//81 147//81 121//81 88//81
f 127//82 99//82 145//82 148//82
f 90//83 127//83 148//83 118//83
f 118//84 148//84 144//84 102//84
f 115//85 89//85 114//85 149//85
f 99//86 115//86 149//86 145//86
f 145//87 149//87 143//87 106//87
f 140//88 105//88 142//88 150//88
f 101//89 140//89 150//89 129//89
f 129//90 150//90 127//90 90//90
f 111//91 95//91 141//91 151//91
f 86//92 111//92 151//92 117//92
f 117//93 151//93 140//93 101//93
f 123//94 84//94 110//94 152//94
f 95//95 123//95 152//95 141//95
f 141//96 152//96 139//96 105//96
f 136//97 104//97 138//97 153//97
f 96//98 136//98 153//98 112//98
f 112//99 153//99 128//99 87//99
f 107//100 91//100 137//100 154//100
f 82//101 107//101 154//101 124//101
f 124//102 154//102 136//102 96//102
f 119//103 86//103 117//103 155//103
f 91//104 119//104 155//104 137//104
f 137//105 155//105 135//105 104//105
f 132//106 103//106 134//106 156//106
f 92//107 132//107 156//107 108//107
f 108//108 156//108 125//108 83//108
f 128//109 100//109 133//109 157//109
f 87//67 128//67 157//67 120//67
f 120//110 157//110 132//110 92//110
f 116//111 90//111 118//111 158//111
f 100//112 116//112 158//112 133//112
f 133//113 158//113 131//113 103//113
f 131//114 102//114 130//114 159//114
f 103//115 131//115 159//115 134//115
f 134//116 159//116 113//116 97//116
f 135//117 101//117 129//117 160//117
f 104//118 135//118 160//118 138//118
f 138//119 160//119 116//119 100//119
f 139//120 94//120 122//120 161//120
f 105//121 139//121 161//121 142//121
f 142//122 161//122 115//122 99//122
f 143//123 98//123 126//123 162//123
f 106//124 143//124 162//124 146//124
f 146//125 162//125 109//125 93//125
f 1//126 26//126 107//126 82//126
f 2//127 27//127 108//127 83//127
f 4//128 28//128 109//128 85//128
f 3//129 29//129 110//129 84//129
f 5//130 30//130 111//130 86//130
f 6//131 31//131 112//131 87//131
f 7//132 32//132 113//132 88//132
f 8//133 33//133 114//133 89//133
f 10//134 38//134 119//134 91//134
f 11//135 39//135 120//135 92//135
f 12//136 40//136 121//136 93//136
f 13//137 41//137 122//137 94//137
f 14//138 42//138 123//138 95//138
f 15//139 43//139 124//139 96//139
f 16//140 44//140 125//140 97//140
f 17//141 45//141 126//141 98//141
f 26//142 10//142 91//142 107//142
f 27//143 11//143 92//143 108//143
f 28//144 12//144 93//144 109//144
f 29//145 13//145 94//145 110//145
f 30//146 14//146 95//146 111//146
f 31//147 15//147 96//147 112//147
f 32//148 16//148 97//148 113//148
f 33//149 17//149 98//149 114//149
f 38//150 5//150 86//150 119//150
f 39//151 6//151 87//151 120//151
f 40//152 7//152 88//152 121//152
f 41//153 8//153 89//153 122//153
f 42//154 3//154 84//154 123//154
f 43//155 1//155 82//155 124//155
f 44//156 2//156 83//156 125//156
f 45//157 4//157 85//157 126//157
