# Blender v2.78 (sub 0) OBJ File: 'leaf1.blend'
# www.blender.org
mtllib leaf1.mtl
o Cylinder
v 0.043148 -0.002114 -0.118743
v 0.042186 1.293858 -0.034429
v 0.082287 -0.002114 -0.108256
v 0.067514 1.292793 -0.028202
v 0.110938 -0.002114 -0.079604
v 0.086211 1.290092 -0.010246
v 0.121426 -0.002114 -0.040465
v 0.093268 1.286498 0.014508
v 0.110938 -0.002114 -0.001326
v 0.086899 1.282980 0.039375
v 0.082287 -0.002114 0.027326
v 0.068905 1.280472 0.057752
v 0.043148 -0.002114 0.037813
v 0.044104 1.279628 0.064822
v 0.004009 -0.002114 0.027326
v 0.019049 1.280669 0.058744
v -0.024643 -0.002114 -0.001326
v 0.000358 1.283323 0.041097
v -0.035130 -0.002114 -0.040465
v -0.006967 1.286895 0.016502
v -0.024643 -0.002114 -0.079604
v -0.000871 1.290437 -0.008514
v 0.004009 -0.002114 -0.108256
v 0.017117 1.292993 -0.027199
v 0.058375 1.311296 -0.019563
v 0.039028 1.300031 -0.032526
v 0.060815 1.305830 -0.024460
v 0.080604 1.300766 -0.008274
v 0.089214 1.294091 0.015323
v -0.006154 1.301723 -0.000626
v 0.084438 1.287605 0.039949
v 0.067654 1.283029 0.059058
v 0.043362 1.281560 0.067633
v 0.017983 1.283578 0.063436
v -0.001781 1.288557 0.047550
v -0.010648 1.295192 0.024126
v 0.010605 1.306384 -0.020034
v 0.035153 1.307893 -0.028783
v 0.014152 1.298937 -0.024689
v -0.003359 1.295572 -0.005681
v -0.008822 1.290862 0.019288
v -0.000881 1.286080 0.043483
v 0.018246 1.282494 0.060485
v 0.043444 1.281045 0.065846
v 0.068058 1.282110 0.058175
v 0.085582 1.285413 0.039473
v 0.091323 1.290090 0.014644
v 0.083645 1.294901 -0.009716
v 0.032607 1.313746 -0.022947
v 0.008334 1.311870 -0.013527
v -0.011610 1.298268 0.030566
v -0.002065 1.290244 0.053278
v 0.018149 1.284248 0.068219
v 0.043631 1.281853 0.071489
v 0.064504 1.298549 -0.027025
v 0.067654 1.283681 0.062249
v 0.083866 1.289258 0.042914
v -0.007844 1.306190 0.006101
v 0.087917 1.297127 0.018562
v 0.078623 1.305199 -0.004328
v 0.055515 1.316131 -0.011563
v 0.030283 1.319010 -0.013548
v 0.007052 1.316813 -0.003431
v -0.010821 1.301479 0.039543
v -0.000994 1.292232 0.061152
v 0.019378 1.285098 0.074890
v 0.044751 1.282295 0.076981
v 0.068144 1.284650 0.066855
v 0.083011 1.291344 0.047143
v -0.007886 1.310334 0.015989
v 0.085588 1.299731 0.023343
v 0.075798 1.308946 0.001973
v 0.276029 1.301803 0.346021
v 0.200758 1.319179 0.392818
v 0.128864 1.326496 0.421434
v 0.025024 1.313679 0.382348
v 0.075224 1.326139 0.417320
v 0.329684 1.279216 0.204468
v 0.333324 1.285878 0.271210
vn 0.2514 0.0628 -0.9658
vn 0.7021 0.0517 -0.7102
vn 0.9643 0.0324 -0.2630
vn 0.9668 0.0101 0.2552
vn 0.7102 -0.0091 0.7039
vn 0.2650 -0.0203 0.9640
vn -0.2501 -0.0205 0.9680
vn -0.6994 -0.0096 0.7146
vn -0.9629 0.0095 0.2696
vn -0.9681 0.0318 -0.2485
vn 0.1982 0.4596 -0.8658
vn -0.7128 0.0513 -0.6995
vn -0.2663 0.0626 -0.9619
vn 0.0000 -1.0000 -0.0000
vn -0.8251 -0.5415 0.1614
vn -0.8083 -0.5716 0.1410
vn -0.3976 -0.8962 0.1966
vn -0.3156 0.3341 -0.8881
vn -0.9836 -0.0382 -0.1763
vn -0.9517 -0.1975 -0.2352
vn 0.6052 -0.7254 0.3278
vn 0.7318 0.0679 0.6782
vn 0.9717 0.1122 0.2080
vn -0.7530 0.1118 -0.6484
vn 0.2072 -0.8456 0.4919
vn 0.5622 0.6763 -0.4761
vn -0.1230 -0.9431 0.3090
vn -0.7497 0.4013 -0.5262
vn 0.8392 0.5204 -0.1581
vn -0.3070 0.6381 -0.7061
vn 0.6258 0.5023 -0.5968
vn 0.8569 0.4849 -0.1749
vn 0.1143 -0.9852 0.1276
vn -0.4658 -0.8179 0.3378
vn 0.1645 0.7159 -0.6786
vn 0.8711 0.4058 0.2768
vn -0.1027 -0.9880 0.1154
vn -0.1937 -0.6858 0.7016
vn -0.6805 0.6490 -0.3402
vn 0.6499 0.4429 -0.6176
vn -0.7257 -0.0257 -0.6875
vn 0.6738 0.2703 0.6877
vn 0.8612 0.4765 -0.1768
vn -0.9240 -0.2804 -0.2600
vn 0.2837 -0.2925 0.9132
vn 0.8485 0.4486 0.2807
vn -0.2903 0.1946 -0.9370
vn -0.5531 -0.6800 0.4813
vn -0.8373 -0.5186 0.1732
vn 0.2273 0.3520 -0.9080
vn 0.1403 0.8739 -0.4654
vn -0.1141 -0.9854 0.1267
vn -0.8826 -0.4130 0.2248
vn -0.2709 0.8313 -0.4853
vn 0.1343 -0.9841 0.1161
vn 0.6327 -0.7235 0.2762
vn -0.4476 -0.8617 0.2389
vn 0.4832 0.8221 -0.3012
vn 0.7313 0.6802 -0.0497
vn 0.9480 0.2383 0.2109
vn -0.9705 0.2353 -0.0532
vn -0.3769 0.9259 0.0254
vn 0.2094 0.9725 -0.1017
vn 0.3239 0.9058 -0.2731
vn 0.1680 0.9835 -0.0678
vn -0.1005 0.9949 -0.0058
vn 0.0428 0.9987 -0.0269
vn -0.5626 -0.8206 0.1004
vn 0.0827 -0.9910 0.1053
vn -0.0457 -0.9894 0.1381
vn -0.1211 -0.9804 0.1554
vn -0.0729 -0.9882 0.1344
vn -0.0443 -0.9970 0.0635
vn -0.0373 -0.9991 -0.0186
usemtl Material.001
s off
f 1//1 2//1 4//1 3//1
f 3//2 4//2 6//2 5//2
f 5//3 6//3 8//3 7//3
f 7//4 8//4 10//4 9//4
f 9//5 10//5 12//5 11//5
f 11//6 12//6 14//6 13//6
f 13//7 14//7 16//7 15//7
f 15//8 16//8 18//8 17//8
f 17//9 18//9 20//9 19//9
f 19//10 20//10 22//10 21//10
f 55//11 26//11 38//11 27//11
f 21//12 22//12 24//12 23//12
f 23//13 24//13 2//13 1//13
f 1//14 3//14 5//14 7//14 9//14 11//14 13//14 15//14 17//14 19//14 21//14 23//14
f 41//15 42//15 35//15 36//15
f 36//16 35//16 52//16 51//16
f 35//17 34//17 53//17 52//17
f 26//18 39//18 37//18 38//18
f 30//19 36//19 51//19 58//19
f 40//20 41//20 36//20 30//20
f 32//21 31//21 57//21 56//21
f 45//22 46//22 31//22 32//22
f 31//23 29//23 59//23 57//23
f 39//24 40//24 30//24 37//24
f 44//25 45//25 32//25 33//25
f 28//26 27//26 25//26 60//26
f 43//27 44//27 33//27 34//27
f 37//28 30//28 58//28 50//28
f 29//29 28//29 60//29 59//29
f 38//30 37//30 50//30 49//30
f 48//31 55//31 27//31 28//31
f 47//32 48//32 28//32 29//32
f 33//33 32//33 56//33 54//33
f 42//34 43//34 34//34 35//34
f 27//35 38//35 49//35 25//35
f 46//36 47//36 29//36 31//36
f 34//37 33//37 54//37 53//37
f 16//38 14//38 44//38 43//38
f 50//39 58//39 70//39 63//39
f 6//40 4//40 55//40 48//40
f 24//41 22//41 40//41 39//41
f 12//42 10//42 46//42 45//42
f 8//43 6//43 48//43 47//43
f 22//44 20//44 41//44 40//44
f 14//45 12//45 45//45 44//45
f 10//46 8//46 47//46 46//46
f 2//47 24//47 39//47 26//47
f 18//48 16//48 43//48 42//48
f 20//49 18//49 42//49 41//49
f 4//50 2//50 26//50 55//50
f 25//51 49//51 62//51 61//51
f 53//52 54//52 67//52 66//52
f 51//53 52//53 65//53 64//53
f 49//54 50//54 63//54 62//54
f 54//55 56//55 68//55 67//55
f 56//56 57//56 69//56 68//56
f 52//57 53//57 66//57 65//57
f 60//58 25//58 61//58 72//58
f 59//59 60//59 72//59 71//59
f 57//60 59//60 71//60 69//60
f 58//61 51//61 64//61 70//61
f 70//62 64//62 76//62 77//62
f 72//63 61//63 73//63 79//63
f 71//64 72//64 79//64 78//64
f 61//65 62//65 74//65 73//65
f 63//66 70//66 77//66 75//66
f 62//67 63//67 75//67 74//67
f 64//68 65//68 66//68 76//68
f 77//69 76//69 66//69 75//69
f 74//70 75//70 67//70
f 66//71 67//71 75//71
f 67//72 68//72 73//72 74//72
f 68//73 69//73 79//73 73//73
f 78//74 79//74 69//74 71//74
