# Blender v2.78 (sub 0) OBJ File: 'rock2.blend'
# www.blender.org
mtllib rock2.mtl
o Icosphere
v 0.555680 0.553282 0.804063
v 0.138194 0.290414 0.997696
v 1.060360 0.288557 0.154506
v 0.432087 0.290414 0.923470
v 0.262865 1.458065 0.000000
v 0.219422 0.905399 0.790729
v 0.276388 0.580829 0.995392
v -0.723607 0.447220 0.525725
v -0.723607 0.447220 -0.525725
v 0.276388 0.447220 -0.999104
v 0.975589 0.577113 0.000000
v 0.011788 1.528507 -0.075735
v 0.219422 0.803118 -0.864670
v 0.138194 0.223610 -0.999552
v -0.657174 0.648937 -0.417368
v -0.902660 0.223610 -0.417369
v -0.655696 0.223610 0.667371
v 0.893558 0.551425 -0.311258
v -0.574465 0.833413 0.417368
v 0.006760 0.486479 -0.904058
v -0.835375 0.486478 -0.262863
v -0.493238 0.486479 0.667368
v 0.951058 0.000000 0.309013
v 0.951058 0.000000 -0.309013
v 0.000000 0.000000 1.000000
v 0.587786 0.000000 0.809017
v -0.951058 0.000000 0.309013
v -0.587786 0.000000 0.809017
v -0.587786 0.000000 -0.809017
v -0.951058 0.000000 -0.309013
v 0.587786 0.000000 -0.809017
v 0.000000 0.000000 -1.000000
v 0.834971 0.525736 0.612735
v -0.262869 0.525738 0.809012
v -0.947143 0.525736 0.000000
v -0.262869 0.525738 -0.809012
v 0.766188 0.525736 -0.622516
v 0.162456 1.066860 0.586066
v 0.525730 1.076962 0.000000
v -0.425323 0.992067 0.309011
v -0.590741 0.850654 -0.309011
v 0.162456 0.965737 -0.499995
v -0.900853 0.262868 0.154506
v 1.024965 0.288557 -0.154506
v -0.837333 0.223610 0.417369
v -0.703897 0.223610 -0.667371
v 0.432087 0.223610 -0.904060
v 0.927949 0.551425 0.306367
v 0.006760 0.553283 0.902202
v -0.835375 0.486478 0.262863
v -0.493238 0.486479 -0.667368
v 0.521288 0.486478 -0.810810
v 0.081228 1.459189 0.293033
v 0.773328 0.902416 0.000000
v -0.212661 1.454009 0.154506
v -0.295370 1.269532 -0.154506
v 0.081228 1.369905 -0.199366
v 0.344093 1.139559 -0.249998
v 0.802041 0.795369 -0.311258
v 0.597895 0.828668 -0.710322
v -0.214143 0.951027 -0.387491
v -0.050207 0.815415 -0.784929
v -0.426805 0.688196 -0.559012
v -0.508032 1.035131 0.000000
v -0.768942 0.688195 -0.154506
v -0.686233 0.872671 0.154506
v -0.131434 1.224788 0.447538
v -0.344096 0.872672 0.639423
v -0.050207 0.877853 0.786794
v 0.387129 1.178191 0.293033
v 0.498714 0.877852 0.599400
v 0.680351 0.876728 0.306367
v 0.910840 0.262868 -0.465765
v 0.769422 0.000000 -0.559015
v 0.723705 0.262868 -0.782717
v -0.131434 0.262869 -0.904506
v -0.293893 0.000000 -0.904508
v -0.425327 0.262869 -0.809014
v -0.949100 0.262868 -0.154506
v -0.951058 0.000000 0.000000
v -0.925955 0.131434 0.231759
v -0.425327 0.262869 0.864545
v -0.293893 0.000000 0.904508
v -0.131434 0.262869 0.904506
v 0.711379 0.262868 0.710876
v 0.769422 0.000000 0.559015
v 0.893015 0.262868 0.460874
v 0.293893 0.000000 -0.904508
v -0.769422 0.000000 -0.559015
v -0.769422 0.000000 0.559015
v 0.293893 0.000000 0.904508
v 0.951058 0.000000 0.000000
v -0.923998 0.394302 0.077253
v -0.880665 0.308956 0.247311
v -0.937528 0.197151 0.038627
vn -0.9919 0.1212 0.0387
vn -0.9994 0.0227 0.0260
vn -0.9931 -0.0154 0.1163
vn 0.7987 -0.1589 0.5803
vn -0.8919 0.2341 0.3869
vn -0.9143 0.2688 0.3030
vn -0.9814 0.1028 0.1624
vn 0.9162 0.3617 0.1728
vn -0.5188 0.4713 0.7132
vn -0.6357 0.3929 0.6645
vn 0.0000 -1.0000 0.0000
vn 0.8615 0.1546 0.4836
vn 0.9551 0.0414 0.2933
vn 0.5172 0.5196 0.6801
vn -0.5272 0.4121 0.7432
vn -0.7824 0.4744 -0.4035
vn -0.2780 0.3002 -0.9125
vn 0.8204 0.5101 -0.2583
vn 0.7490 0.5166 -0.4148
vn 0.5684 0.7944 -0.2141
vn 0.5963 0.1004 -0.7965
vn -0.2599 0.5421 -0.7991
vn -0.1473 0.9159 -0.3733
vn -0.5076 0.5315 -0.6782
vn -0.7801 0.6066 -0.1534
vn -0.7445 0.6418 -0.1839
vn -0.8078 0.4262 0.4071
vn -0.6585 0.4933 0.5684
vn -0.6776 0.6226 0.3915
vn -0.3391 0.2618 0.9036
vn 0.5286 0.5755 0.6240
vn 0.3850 0.7253 0.5708
vn 0.7638 0.5813 0.2805
vn 0.9388 -0.0587 -0.3394
vn 0.7890 -0.2211 -0.5732
vn 0.3946 -0.1128 -0.9119
vn -0.3020 0.1885 -0.9345
vn -0.3035 0.1876 -0.9342
vn -0.4660 0.2880 -0.8366
vn -0.9746 0.1189 -0.1899
vn -0.9641 0.1399 0.2258
vn -0.9187 0.1396 0.3693
vn -0.6536 0.2533 0.7132
vn -0.3090 -0.0099 0.9510
vn -0.3373 0.1679 0.9263
vn 0.6064 0.0117 0.7951
vn 0.8776 -0.0793 0.4727
vn 0.3036 -0.1858 -0.9345
vn -0.8081 -0.0477 -0.5871
vn -0.8042 -0.1091 -0.5843
vn -0.8026 0.1256 0.5831
vn -0.5346 0.3304 0.7779
vn -0.3035 0.1876 0.9342
vn 0.3061 -0.1382 0.9419
vn -0.1343 0.0830 0.9875
vn -0.1293 0.2808 0.9510
vn 0.9352 -0.3542 0.0000
vn 0.9687 -0.2481 0.0000
vn -0.7807 -0.0720 -0.6207
vn -0.7444 0.3093 -0.5918
vn 0.3025 -0.2047 0.9309
vn 0.2410 -0.1770 0.9542
vn 0.2434 -0.1082 0.9639
vn 0.9475 -0.3008 -0.1085
vn 0.9680 0.2250 -0.1109
vn 0.5674 0.0403 0.8225
vn 0.6086 0.0728 0.7901
vn 0.5690 0.1030 0.8158
vn -0.7992 0.4432 -0.4060
vn -0.9087 0.3584 -0.2141
vn -0.8777 0.2476 -0.4102
vn -0.5346 0.3304 -0.7779
vn -0.4620 0.3702 -0.8059
vn -0.5260 0.4215 -0.7387
vn 0.5249 0.3795 -0.7619
vn 0.3525 0.2043 -0.9132
vn 0.5996 0.0790 -0.7964
vn 0.8488 0.1682 -0.5012
vn 0.8286 -0.2722 -0.4892
vn 0.7613 -0.3383 -0.5531
vn 0.9163 0.2993 -0.2662
vn 0.9042 0.2424 -0.3516
vn 0.8863 0.2587 -0.3840
vn 0.5598 0.7941 0.2365
vn 0.8363 0.5200 0.1736
vn 0.7114 0.6962 0.0960
vn 0.6483 0.6482 0.3994
vn 0.6542 0.6400 0.4030
vn 0.2287 0.9637 0.1381
vn 0.6245 0.6798 0.3845
vn 0.8082 0.5575 0.1897
vn -0.0879 0.7700 0.6319
vn -0.0472 0.3273 0.9437
vn -0.3316 0.4609 0.8232
vn 0.0439 0.7037 0.7091
vn -0.3652 0.6058 0.7069
vn -0.4301 0.3132 0.8467
vn -0.1134 0.9724 0.2041
vn -0.3129 0.7041 0.6375
vn -0.0635 0.5887 0.8058
vn -0.5526 0.7572 0.3481
vn -0.5226 0.8141 0.2533
vn -0.5669 0.7652 -0.3051
vn -0.8294 0.4784 0.2887
vn -0.3191 0.6853 -0.6546
vn -0.5192 0.7203 -0.4600
vn -0.5653 0.4713 -0.6770
vn -0.2382 0.5301 -0.8138
vn -0.2387 0.5329 -0.8118
vn -0.3037 0.5108 -0.8042
vn 0.0983 0.9145 -0.3924
vn 0.3600 0.1878 -0.9139
vn 0.5273 0.3728 -0.7635
vn -0.0129 0.8253 -0.5645
vn 0.5663 0.7933 -0.2235
vn 0.8447 0.3526 -0.4027
vn 0.3804 0.6664 -0.6413
vn 0.4201 0.6242 -0.6587
vn 0.3899 0.5988 -0.6996
vn 0.5618 0.7969 -0.2222
vn 0.9357 0.3510 -0.0344
vn 0.8657 0.3248 -0.3810
vn -0.0819 0.9054 -0.4165
vn -0.2594 0.2888 -0.9216
vn -0.2819 0.2832 -0.9167
vn -0.5152 0.7578 0.4005
vn -0.6863 0.3126 0.6567
vn -0.5374 0.2655 0.8005
vn 0.4120 0.7676 0.4909
usemtl None
s off
f 80//1 27//1 81//1 95//1
f 30//2 80//2 95//2 79//2
f 79//3 95//3 93//3 35//3
f 86//4 23//4 87//4
f 85//4 86//4 87//4
f 45//5 8//5 50//5 94//5
f 27//6 45//6 94//6 81//6
f 81//7 94//7 93//7 43//7
f 85//4 87//4 33//4
f 3//8 11//8 48//8
f 82//9 34//9 22//9
f 17//10 82//10 22//10
f 24//11 92//11 23//11 86//11 26//11 91//11 25//11 83//11 28//11 90//11 27//11 80//11 30//11 89//11 29//11 77//11 32//11 88//11 31//11 74//11
f 87//12 3//12 48//12
f 87//13 48//13 33//13
f 7//14 1//14 6//14
f 8//15 22//15 19//15
f 9//16 21//16 15//16
f 10//17 20//17 13//17
f 11//18 18//18 54//18
f 39//19 58//19 5//19
f 39//20 59//20 58//20
f 37//21 52//21 60//21
f 42//22 61//22 57//22
f 42//23 62//23 61//23
f 36//24 51//24 63//24
f 41//25 64//25 56//25
f 41//26 65//26 64//26
f 35//27 50//27 66//27
f 40//28 67//28 55//28
f 40//29 68//29 67//29
f 34//30 49//30 69//30
f 38//31 70//31 53//31
f 38//32 71//32 70//32
f 33//33 48//33 72//33
f 24//34 73//34 44//34
f 24//35 74//35 73//35
f 31//36 47//36 75//36
f 32//37 76//37 14//37
f 32//38 77//38 76//38
f 29//39 46//39 78//39
f 30//40 79//40 16//40
f 95//41 81//41 43//41 93//41
f 94//42 50//42 35//42 93//42
f 28//43 82//43 17//43
f 28//44 83//44 82//44
f 25//45 2//45 84//45
f 26//46 85//46 4//46
f 26//4 86//4 85//4
f 23//47 3//47 87//47
f 31//48 88//48 47//48
f 88//48 32//48 14//48
f 47//48 88//48 14//48
f 29//49 89//49 46//49
f 47//48 14//48 10//48
f 89//50 30//50 16//50
f 27//51 90//51 45//51
f 17//52 22//52 8//52
f 83//53 25//53 84//53
f 25//54 91//54 2//54
f 82//55 83//55 84//55
f 82//56 84//56 34//56
f 23//57 92//57 3//57
f 92//58 24//58 44//58
f 46//59 89//59 16//59
f 46//60 16//60 9//60
f 90//51 28//51 17//51
f 45//51 90//51 17//51
f 45//51 17//51 8//51
f 91//61 26//61 4//61
f 2//62 91//62 4//62
f 2//45 7//45 49//45
f 84//45 2//45 49//45
f 84//45 49//45 34//45
f 2//63 4//63 7//63
f 3//64 92//64 44//64
f 3//65 44//65 11//65
f 85//66 33//66 1//66
f 4//67 85//67 1//67
f 4//68 1//68 7//68
f 16//69 21//69 9//69
f 16//70 79//70 21//70
f 79//71 35//71 21//71
f 78//72 51//72 36//72
f 78//73 46//73 51//73
f 46//74 9//74 51//74
f 76//38 78//38 36//38
f 76//38 77//38 78//38
f 77//38 29//38 78//38
f 14//37 20//37 10//37
f 14//37 76//37 20//37
f 76//37 36//37 20//37
f 75//75 52//75 37//75
f 75//76 47//76 52//76
f 47//77 10//77 52//77
f 73//78 75//78 37//78
f 73//79 74//79 75//79
f 74//80 31//80 75//80
f 44//81 18//81 11//81
f 44//82 73//82 18//82
f 73//83 37//83 18//83
f 72//84 54//84 39//84
f 72//33 48//33 54//33
f 48//85 11//85 54//85
f 70//86 72//86 39//86
f 70//87 71//87 72//87
f 71//88 33//88 72//88
f 53//89 5//89 12//89
f 53//90 70//90 5//90
f 70//91 39//91 5//91
f 69//92 6//92 38//92
f 69//93 49//93 6//93
f 49//94 7//94 6//94
f 67//95 69//95 38//95
f 67//96 68//96 69//96
f 68//97 34//97 69//97
f 55//98 53//98 12//98
f 55//99 67//99 53//99
f 67//100 38//100 53//100
f 66//101 19//101 40//101
f 66//27 50//27 19//27
f 50//27 8//27 19//27
f 64//102 66//102 40//102
f 64//26 65//26 66//26
f 65//26 35//26 66//26
f 56//103 55//103 12//103
f 56//25 64//25 55//25
f 64//104 40//104 55//104
f 63//24 15//24 41//24
f 63//24 51//24 15//24
f 51//24 9//24 15//24
f 61//105 63//105 41//105
f 61//106 62//106 63//106
f 62//107 36//107 63//107
f 57//108 56//108 12//108
f 57//109 61//109 56//109
f 61//110 41//110 56//110
f 60//111 13//111 42//111
f 60//112 52//112 13//112
f 52//113 10//113 13//113
f 58//114 60//114 42//114
f 58//115 59//115 60//115
f 59//116 37//116 60//116
f 5//117 57//117 12//117
f 5//118 58//118 57//118
f 58//119 42//119 57//119
f 54//120 59//120 39//120
f 54//121 18//121 59//121
f 18//122 37//122 59//122
f 13//123 62//123 42//123
f 13//124 20//124 62//124
f 20//125 36//125 62//125
f 15//16 65//16 41//16
f 15//16 21//16 65//16
f 21//16 35//16 65//16
f 19//126 68//126 40//126
f 19//127 22//127 68//127
f 22//128 34//128 68//128
f 6//129 71//129 38//129
f 6//14 1//14 71//14
f 1//14 33//14 71//14
