# Blender v2.78 (sub 0) OBJ File: 'rock1.blend'
# www.blender.org
mtllib rock1.mtl
o Icosphere
v 0.276388 0.447220 0.850649
v -0.723607 0.447220 0.525725
v -0.723607 0.447220 -0.525725
v 0.276388 0.447220 -0.850649
v 0.894426 0.447216 0.000000
v 0.000000 1.000000 0.000000
v 0.875419 0.000000 0.309013
v 1.139777 0.000000 -0.309013
v 0.000000 0.000000 1.000000
v 0.587786 0.000000 0.809017
v -0.951058 0.000000 0.309013
v -0.587786 0.000000 0.809017
v -0.587786 0.000000 -0.718032
v -1.179735 0.000000 -0.309013
v 0.587786 0.000000 -1.109674
v 0.000000 0.000000 -1.000000
v 0.688189 0.525736 0.499997
v -0.262869 0.525738 0.860809
v -0.850648 0.525736 0.000000
v -0.262869 0.525738 -0.809012
v 0.688189 0.525736 -0.499997
v 0.162456 0.701905 0.499995
v 0.525730 0.850652 0.000000
v -0.425323 0.850654 0.309011
v -0.425323 0.859791 -0.309011
v 0.162456 0.800826 -0.499995
v 1.017102 0.223608 -0.154506
v 0.432087 0.223610 0.829833
v -0.655696 0.223610 0.667371
v -0.951671 0.223610 -0.417369
v 0.138194 0.223610 -0.925325
v 0.482289 0.486478 0.675323
v -0.493238 0.486479 0.693267
v -0.787128 0.486478 -0.262863
v 0.006760 0.486479 -0.829830
v 0.791308 0.486476 -0.249998
v 0.219422 0.574563 0.675322
v 0.262865 0.925326 0.000000
v -0.574465 0.648937 0.417368
v -0.574465 0.653505 -0.417368
v 0.219422 0.624023 -0.675322
v 0.884923 0.223608 0.154506
v 0.138194 0.223610 0.925325
v -0.837333 0.223610 0.417369
v -0.655696 0.223610 -0.621879
v 0.432087 0.223610 -0.980162
v 0.791308 0.486476 0.249998
v 0.006760 0.486479 0.855729
v -0.787128 0.486478 0.262863
v -0.493238 0.486479 -0.667368
v 0.482289 0.486478 -0.675323
v 0.081228 0.850953 0.249998
v 0.710078 0.648934 0.000000
v -0.212661 0.925327 0.154506
v -0.212661 0.929896 -0.154506
v 0.081228 0.900413 -0.249998
v 0.344093 0.825739 -0.249998
v 0.606960 0.688194 -0.249998
v 0.425322 0.663281 -0.499996
v -0.131434 0.830309 -0.404503
v -0.050207 0.663282 -0.654503
v -0.344096 0.692765 -0.559012
v -0.425323 0.855223 0.000000
v -0.637985 0.692764 -0.154506
v -0.637985 0.688195 0.154506
v -0.131434 0.776280 0.404503
v -0.344096 0.688196 0.584910
v -0.050207 0.613822 0.680402
v 0.344093 0.776279 0.249998
v 0.425322 0.613821 0.499996
v 0.606960 0.688194 0.249998
v 0.913983 0.262868 -0.404505
v 0.863782 0.000000 -0.709343
v 0.637987 0.262868 -0.804836
v -0.131434 0.262869 -0.904506
v -0.293893 0.000000 -0.859016
v -0.425327 0.262869 -0.763522
v -1.015191 0.262868 -0.154506
v -1.065396 0.000000 0.000000
v -0.900853 0.262868 0.154506
v -0.425327 0.262869 0.834913
v -0.293893 0.000000 0.904508
v -0.131434 0.262869 0.930404
v 0.637987 0.262868 0.654507
v 0.731602 0.000000 0.559015
v 0.781804 0.262868 0.404505
v 0.293893 0.000000 -1.054837
v -0.883760 0.000000 -0.513522
v -0.769422 0.000000 0.559015
v 0.293893 0.000000 0.904508
v 1.007598 0.000000 0.000000
vn 0.2742 0.8183 0.5052
vn -0.5088 0.6679 0.5431
vn -0.7081 0.6530 -0.2686
vn 0.0494 0.7113 -0.7012
vn 0.7240 0.6617 -0.1947
vn 0.2621 0.9228 -0.2824
vn 0.4267 0.8154 -0.3912
vn 0.3722 0.7113 -0.5963
vn -0.0301 0.9252 -0.3783
vn -0.1058 0.8106 -0.5760
vn -0.4743 0.6530 -0.5904
vn -0.3222 0.9466 0.0140
vn -0.6124 0.7905 0.0117
vn -0.7002 0.6617 0.2680
vn 0.0574 0.8656 0.4974
vn 0.0592 0.8677 0.4935
vn 0.1301 0.8218 0.5546
vn 0.2459 0.8656 0.4362
vn 0.2827 0.8437 0.4564
vn 0.7240 0.6617 0.1947
vn 0.7780 0.5851 -0.2290
vn 0.7361 0.4479 -0.5075
vn 0.4139 0.6546 -0.6326
vn -0.0247 0.3304 -0.9435
vn -0.4299 0.1106 -0.8961
vn -0.5375 0.1900 -0.8216
vn -0.7365 0.6200 -0.2706
vn -0.8758 0.3577 0.3241
vn -0.9050 0.3304 0.2680
vn -0.5945 0.2936 0.7486
vn -0.3076 0.0968 0.9466
vn 0.0592 0.2831 0.9573
vn 0.5746 0.3304 0.7488
vn 0.8598 0.1265 0.4946
vn 0.9164 0.2005 0.3465
vn -0.1678 0.4040 -0.8992
vn -0.5594 0.1782 -0.8095
vn -0.8026 0.1256 0.5831
vn 0.3066 0.1256 0.9435
vn 0.8955 0.2266 0.3830
vn 0.0000 -1.0000 0.0000
vn 0.0593 0.2831 0.9573
usemtl None
s off
f 1//1 32//1 37//1
f 2//2 33//2 39//2
f 3//3 34//3 40//3
f 4//4 35//4 41//4
f 5//5 36//5 53//5
f 23//6 57//6 38//6
f 23//7 58//7 57//7
f 21//8 51//8 59//8
f 26//9 60//9 56//9
f 26//10 61//10 60//10
f 20//11 50//11 62//11
f 25//12 63//12 55//12
f 25//13 64//13 63//13
f 19//14 49//14 65//14
f 24//15 66//15 54//15
f 24//16 67//16 66//16
f 18//17 48//17 68//17
f 22//18 69//18 52//18
f 22//19 70//19 69//19
f 17//20 47//20 71//20
f 8//21 72//21 27//21
f 8//22 73//22 72//22
f 15//23 46//23 74//23
f 16//24 75//24 31//24
f 16//25 76//25 75//25
f 13//26 45//26 77//26
f 14//27 78//27 30//27
f 14//28 79//28 78//28
f 11//29 44//29 80//29
f 12//30 81//30 29//30
f 12//31 82//31 81//31
f 9//32 43//32 83//32
f 10//33 84//33 28//33
f 10//34 85//34 84//34
f 7//35 42//35 86//35
f 15//36 87//36 46//36
f 13//37 88//37 45//37
f 11//38 89//38 44//38
f 9//39 90//39 43//39
f 7//40 91//40 42//40
f 8//41 91//41 7//41 85//41 10//41 90//41 9//41 82//41 12//41 89//41 11//41 79//41 14//41 88//41 13//41 76//41 16//41 87//41 15//41 73//41
f 42//40 27//40 5//40
f 42//40 91//40 27//40
f 91//40 8//40 27//40
f 43//39 28//39 1//39
f 43//39 90//39 28//39
f 90//39 10//39 28//39
f 44//38 29//38 2//38
f 44//38 89//38 29//38
f 89//38 12//38 29//38
f 45//37 30//37 3//37
f 45//37 88//37 30//37
f 88//37 14//37 30//37
f 46//36 31//36 4//36
f 46//36 87//36 31//36
f 87//36 16//36 31//36
f 86//35 47//35 17//35
f 86//35 42//35 47//35
f 42//35 5//35 47//35
f 84//34 86//34 17//34
f 84//34 85//34 86//34
f 85//34 7//34 86//34
f 28//33 32//33 1//33
f 28//33 84//33 32//33
f 84//33 17//33 32//33
f 83//42 48//42 18//42
f 83//32 43//32 48//32
f 43//42 1//42 48//42
f 81//31 83//31 18//31
f 81//31 82//31 83//31
f 82//31 9//31 83//31
f 29//30 33//30 2//30
f 29//30 81//30 33//30
f 81//30 18//30 33//30
f 80//29 49//29 19//29
f 80//29 44//29 49//29
f 44//29 2//29 49//29
f 78//28 80//28 19//28
f 78//28 79//28 80//28
f 79//28 11//28 80//28
f 30//27 34//27 3//27
f 30//27 78//27 34//27
f 78//27 19//27 34//27
f 77//26 50//26 20//26
f 77//26 45//26 50//26
f 45//26 3//26 50//26
f 75//25 77//25 20//25
f 75//25 76//25 77//25
f 76//25 13//25 77//25
f 31//24 35//24 4//24
f 31//24 75//24 35//24
f 75//24 20//24 35//24
f 74//23 51//23 21//23
f 74//23 46//23 51//23
f 46//23 4//23 51//23
f 72//22 74//22 21//22
f 72//22 73//22 74//22
f 73//22 15//22 74//22
f 27//21 36//21 5//21
f 27//21 72//21 36//21
f 72//21 21//21 36//21
f 71//20 53//20 23//20
f 71//20 47//20 53//20
f 47//20 5//20 53//20
f 69//19 71//19 23//19
f 69//19 70//19 71//19
f 70//19 17//19 71//19
f 52//18 38//18 6//18
f 52//18 69//18 38//18
f 69//18 23//18 38//18
f 68//17 37//17 22//17
f 68//17 48//17 37//17
f 48//17 1//17 37//17
f 66//16 68//16 22//16
f 66//16 67//16 68//16
f 67//16 18//16 68//16
f 54//15 52//15 6//15
f 54//15 66//15 52//15
f 66//15 22//15 52//15
f 65//14 39//14 24//14
f 65//14 49//14 39//14
f 49//14 2//14 39//14
f 63//13 65//13 24//13
f 63//13 64//13 65//13
f 64//13 19//13 65//13
f 55//12 54//12 6//12
f 55//12 63//12 54//12
f 63//12 24//12 54//12
f 62//11 40//11 25//11
f 62//11 50//11 40//11
f 50//11 3//11 40//11
f 60//10 62//10 25//10
f 60//10 61//10 62//10
f 61//10 20//10 62//10
f 56//9 55//9 6//9
f 56//9 60//9 55//9
f 60//9 25//9 55//9
f 59//8 41//8 26//8
f 59//8 51//8 41//8
f 51//8 4//8 41//8
f 57//7 59//7 26//7
f 57//7 58//7 59//7
f 58//7 21//7 59//7
f 38//6 56//6 6//6
f 38//6 57//6 56//6
f 57//6 26//6 56//6
f 53//5 58//5 23//5
f 53//5 36//5 58//5
f 36//5 21//5 58//5
f 41//4 61//4 26//4
f 41//4 35//4 61//4
f 35//4 20//4 61//4
f 40//3 64//3 25//3
f 40//3 34//3 64//3
f 34//3 19//3 64//3
f 39//2 67//2 24//2
f 39//2 33//2 67//2
f 33//2 18//2 67//2
f 37//1 70//1 22//1
f 37//1 32//1 70//1
f 32//1 17//1 70//1
