# Blender v2.78 (sub 0) OBJ File: 'tree1.blend'
# www.blender.org
mtllib tree1.mtl
o Cylinder
v -0.002768 0.052386 -0.489986
v -0.001478 5.021980 -0.327285
v 0.276296 0.052386 -0.399312
v 0.293484 5.171992 -0.307900
v 0.448768 0.052386 -0.161926
v 0.373499 5.083691 -0.137247
v 0.448768 0.052386 0.131500
v 0.374318 5.084292 0.103255
v 0.276296 0.052386 0.368886
v 0.276296 5.179743 0.368886
v -0.002768 0.052386 0.459560
v 0.006173 5.037702 0.306118
v -0.281833 0.052386 0.368886
v -0.223966 4.955942 0.296530
v -0.454304 0.052386 0.131500
v -0.366022 4.956306 0.103038
v -0.454304 0.052386 -0.161926
v -0.364610 4.948398 -0.136934
v -0.281832 0.052386 -0.399313
v -0.222334 4.958889 -0.328942
v -0.035913 5.047230 -0.018429
v 0.006206 5.064387 0.161448
v 0.006513 5.061832 -0.195202
v -0.002768 2.595671 0.459560
v -0.002768 1.324029 0.459560
v -0.002768 3.867314 0.459560
v -0.002768 0.688207 0.459560
v -0.005086 3.250116 0.410072
v -0.002768 1.959850 0.459560
v 0.003245 4.557463 0.379929
v -0.002768 0.370297 0.459560
v -0.002768 2.913582 0.459560
v -0.002768 1.641939 0.459560
v -0.002768 4.185225 0.459560
v -0.002768 1.006118 0.459560
v -0.005165 3.536139 0.408378
v -0.012055 2.271616 0.430914
v 0.004502 4.823682 0.363285
v -0.002768 0.211341 0.459560
v -0.002768 2.754627 0.459560
v -0.002768 1.482984 0.459560
v -0.002768 4.026269 0.459560
v -0.002768 0.847163 0.307224
v -0.067767 3.376584 0.428435
v 0.073997 2.121500 0.403788
v 0.004088 4.694306 0.368764
v -0.002768 0.529252 0.459560
v -0.004803 3.102693 0.416112
v -0.002768 1.800895 0.459560
v -0.002768 4.344180 0.459560
v -0.002768 1.165073 0.459560
v -0.002768 3.708359 0.459560
v -0.011253 2.423024 0.433385
v 0.004200 4.952315 0.367291
v -0.002768 2.595671 -0.489986
v -0.004722 3.829986 -0.452515
v -0.002768 1.324029 -0.489986
v 0.003429 4.559125 -0.411530
v -0.012839 1.972360 -0.463782
v -0.005311 3.251924 -0.441228
v -0.002768 0.688207 -0.489986
v 0.004834 4.823802 -0.393740
v -0.013496 2.270662 -0.462074
v -0.005417 3.534747 -0.439198
v -0.002768 1.006118 -0.489986
v -0.057783 4.185225 -0.560447
v -0.002768 1.641939 -0.489986
v 0.039358 2.913582 -0.489986
v -0.002768 0.370297 -0.489986
v 0.004491 4.951159 -0.398094
v -0.012310 2.421318 -0.465158
v -0.005088 3.679780 -0.445499
v -0.002768 1.165073 -0.489986
v -0.002768 4.344180 -0.489986
v -0.002768 1.800894 -0.489986
v -0.002768 3.072537 -0.489986
v -0.002768 0.529252 -0.489986
v 0.072718 4.701325 -0.322567
v -0.013735 2.121988 -0.461453
v -0.005518 3.393888 -0.437243
v -0.002768 0.847163 -0.489986
v -0.002768 4.026269 -0.489986
v -0.002768 1.482984 -0.489986
v -0.002768 2.754626 -0.489986
v -0.002768 0.211341 -0.489986
v 0.954866 5.570908 -0.145728
v 1.029746 5.480336 -0.089900
v 1.039973 5.462277 0.042940
v 0.960170 5.559483 0.108875
v 0.848146 5.639583 -0.034886
v 0.839648 5.616477 0.068674
v 0.848453 5.627152 -0.110360
v -0.631117 5.973433 0.181464
v -0.674277 5.986079 0.032413
v -0.675542 5.982757 -0.061763
v -0.631060 5.975823 -0.209665
v -0.486067 5.999682 -0.014278
v -0.508112 6.050052 0.085758
v -0.508112 6.050052 -0.114313
v -0.704302 5.995498 -0.454668
v -0.909234 5.941386 -0.623120
v -1.161055 5.871041 -0.544475
v -1.345035 5.816931 -0.285557
v -1.401983 5.803159 -0.043067
v -1.398574 5.795287 0.227065
v -1.312528 5.815579 0.477845
v -1.100280 5.872396 0.594939
v -0.886287 5.933271 0.446749
v -0.508112 6.050052 -0.014278
v -0.955047 5.926605 0.021345
v -0.955047 5.926605 -0.078690
v 0.942974 5.684782 0.440853
v 1.144278 5.532694 0.535772
v 1.368411 5.345147 0.507103
v 1.592020 5.249902 0.295931
v 1.716901 5.204845 0.018847
v 1.732622 5.205576 -0.276741
v 1.676035 5.292810 -0.566655
v 1.537977 5.487710 -0.723758
v 1.271961 5.654175 -0.621947
v 0.448768 2.595671 0.131500
v 0.448768 1.324029 0.131500
v 0.448768 3.867314 0.131500
v 0.448768 0.688207 0.131500
v 0.402143 3.249973 0.114594
v 0.420757 1.969243 0.123030
v 0.376399 4.560908 0.104045
v 0.448768 0.370297 0.131500
v 0.448768 2.913582 0.131500
v 0.414932 1.641939 0.131500
v 0.448768 4.185225 0.131500
v 0.448768 1.006118 0.131500
v 0.400572 3.536247 0.114025
v 0.419770 2.272581 0.122732
v 0.358503 4.823937 0.097256
v 0.448768 0.211341 0.131500
v 0.417566 2.754627 0.131500
v 0.448768 1.482984 0.131500
v 0.448768 4.026269 0.131500
v 0.448768 0.847163 0.131500
v 0.399094 3.393513 0.113489
v 0.419432 2.121104 0.122629
v 0.364583 4.697042 0.099562
v 0.448768 0.529252 0.131500
v 0.448768 3.072537 0.131500
v 0.448768 1.800895 0.131500
v 0.448768 4.344180 0.131500
v 0.448768 1.165073 0.131500
v 0.405563 3.682106 0.115835
v 0.421615 2.424887 0.123290
v 0.362968 4.949876 0.098949
v 0.448768 2.595671 -0.161926
v 0.448768 1.324029 -0.161926
v 0.448768 3.867314 -0.161926
v 0.448768 0.688207 -0.161926
v 0.400894 3.250468 -0.149709
v 0.420009 1.969494 -0.156979
v 0.375648 4.561507 -0.137951
v 0.448768 0.370297 -0.161926
v 0.448768 2.913582 -0.161926
v 0.414932 1.641939 -0.161926
v 0.448768 4.185225 -0.161926
v 0.448768 1.006118 -0.161926
v 0.399190 3.535870 -0.149274
v 0.418938 2.272432 -0.156795
v 0.357033 4.823985 -0.131847
v 0.448768 0.211341 -0.161926
v 0.417566 2.754627 -0.161926
v 0.448768 1.482984 -0.161926
v 0.448768 4.026269 -0.161926
v 0.448768 0.847163 -0.161926
v 0.397576 3.393606 -0.148862
v 0.418569 2.121171 -0.156731
v 0.363394 4.697536 -0.133933
v 0.448768 0.529252 -0.161926
v 0.448768 3.072537 -0.161926
v 0.448768 1.800895 -0.161926
v 0.448768 4.344180 -0.161926
v 0.448768 1.165073 -0.161926
v 0.404575 3.681506 -0.150648
v 0.420936 2.424591 -0.157138
v 0.361708 4.949434 -0.133380
v 0.959442 4.208087 0.090452
v 0.924090 4.266423 0.090452
v 0.959442 4.208087 -0.114785
v 0.924090 4.266423 -0.114785
v 0.889150 2.902091 0.057095
v 0.836075 2.958736 0.057095
v 0.889150 2.902091 -0.106367
v 0.836075 2.958736 -0.106367
v 0.712688 1.777296 0.063290
v 0.756917 1.726076 0.063290
v 0.712688 1.777296 -0.112551
v 0.756917 1.726076 -0.112551
v -0.435309 2.490135 -0.154824
v -0.454304 1.282807 -0.161926
v -0.413133 3.712501 -0.150269
v -0.454304 0.667597 -0.161926
v -0.411699 3.157430 -0.149863
v -0.432760 1.918403 -0.153870
v -0.454304 4.358860 -0.161926
v -0.454304 0.359991 -0.161926
v -0.454304 2.820834 -0.161926
v -0.454304 1.590412 -0.161926
v -0.454304 4.051255 -0.161926
v -0.454304 0.975202 -0.161926
v -0.403413 3.434108 -0.147517
v -0.425744 2.201773 -0.151247
v -0.365983 4.696836 -0.137316
v -0.454304 0.206189 -0.161926
v -0.454304 2.667031 -0.161926
v -0.454304 1.436610 -0.161926
v -0.454304 3.897452 -0.161926
v -0.454304 0.821399 -0.161926
v -0.405650 3.297870 -0.148150
v -0.427394 2.062738 -0.151864
v -0.375751 4.564422 -0.140038
v -0.454304 0.513794 -0.161926
v -0.401870 2.974636 -0.161926
v -0.395275 1.744215 -0.161926
v -0.427084 4.205057 -0.161926
v -0.454304 1.129005 -0.161926
v -0.406737 3.570948 -0.148458
v -0.429975 2.342997 -0.152829
v -0.361299 4.822948 -0.136011
v -0.436409 2.495764 0.119738
v -0.454304 1.285097 0.131500
v -0.454304 3.750520 0.131500
v -0.454304 0.668742 0.131500
v -0.412551 3.162018 0.114704
v -0.454304 1.901453 0.131500
v -0.454304 4.366876 0.131500
v -0.454304 0.360564 0.131500
v -0.454304 2.825986 0.131500
v -0.454304 1.593275 0.131500
v -0.454304 4.058698 0.131500
v -0.454304 0.976920 0.131500
v -0.405260 3.439754 0.111771
v -0.428817 2.205836 0.114749
v -0.366514 4.703697 0.103196
v -0.454304 0.206475 0.131500
v -0.454304 2.671898 0.131500
v -0.454304 1.439186 0.131500
v -0.454304 3.904609 0.131500
v -0.454304 0.822831 0.131500
v -0.407081 3.302758 0.112504
v -0.429901 2.065123 0.115461
v -0.375859 4.571318 0.106209
v -0.454304 0.514653 0.131500
v -0.401870 2.980075 0.131500
v -0.395275 1.747364 0.131500
v -0.427084 4.212787 0.131500
v -0.454304 1.131009 0.131500
v -0.408448 3.577507 0.113053
v -0.432058 2.348361 0.116878
v -0.362383 4.830120 0.101865
v -0.893782 4.483909 -0.121290
v -0.841179 4.531963 -0.119874
v -0.893782 4.488702 0.038925
v -0.841179 4.536941 0.040342
v -0.881229 3.192255 -0.121311
v -0.814646 3.233218 -0.120652
v -0.881229 3.196185 0.017141
v -0.814646 3.237366 0.017800
v -0.810612 1.930961 -0.108888
v -0.732318 1.964216 -0.108151
v -0.810627 1.932936 0.009601
v -0.732342 1.966373 0.009626
v 1.040245 4.194530 -0.335282
v 1.210696 4.035791 -0.450225
v 1.340212 3.918837 -0.345415
v 1.379561 3.888416 -0.045497
v 1.339859 3.930331 0.240465
v 1.211804 4.051283 0.415831
v 1.048436 4.199241 0.306495
v 0.933959 2.963525 0.212011
v 1.018008 2.877966 0.260361
v 1.091376 2.792408 0.172952
v 1.121947 2.751212 -0.010707
v 1.088705 2.779731 -0.243191
v 1.010921 2.865290 -0.287299
v 0.927326 2.954018 -0.237977
v 0.899484 2.958771 -0.012983
v 0.797004 1.802499 0.198924
v 0.848999 1.705575 0.242278
v 0.943580 1.652257 0.186122
v 0.987038 1.616138 -0.011080
v 0.953606 1.643657 -0.165260
v 0.872980 1.702135 -0.240277
v 0.801563 1.787894 -0.184343
v -0.894776 4.527611 -0.203538
v -1.023694 4.436055 -0.297571
v -1.130462 4.360099 -0.229410
v -1.156476 4.338507 -0.060794
v -1.104717 4.374530 0.127778
v -1.017144 4.441283 0.215428
v -0.902952 4.533465 0.128172
v -0.889201 3.258116 -0.242147
v -1.011932 3.190014 -0.281338
v -1.108663 3.152472 -0.199810
v -1.128589 3.130737 -0.048959
v -1.119022 3.154474 0.124327
v -1.041881 3.173532 0.190039
v -0.929262 3.261995 0.183908
v -0.820391 1.964907 -0.209085
v -0.950075 1.886699 -0.243286
v -1.009847 1.858182 -0.149450
v -1.016093 1.868742 -0.020183
v -0.990736 1.900627 0.114608
v -0.807805 1.994270 0.095768
v -0.268963 2.474123 0.359568
v -0.281833 1.285097 0.328999
v -0.283638 3.735493 0.379673
v -0.281833 0.668742 0.368886
v -0.257714 3.161109 0.330241
v -0.281833 1.901453 0.368886
v -0.249569 4.366876 0.291959
v 0.276296 2.616065 0.368886
v 0.276296 1.334225 0.368886
v 0.276296 3.897904 0.368886
v 0.276296 0.743093 0.331959
v 0.250312 3.270966 0.426837
v 0.314148 1.975145 0.368886
v 0.250359 4.595428 0.223606
v 0.309432 2.644112 -0.380268
v 0.292864 1.348249 -0.389790
v 0.326000 3.939974 -0.370745
v 0.284580 0.700318 -0.394551
v 0.277588 3.306944 -0.276353
v 0.245484 2.048464 -0.409444
v 0.257515 4.630883 -0.368911
v -0.281832 2.520099 -0.399313
v -0.281832 1.286242 -0.399313
v -0.257359 3.721960 -0.364982
v -0.281832 0.669314 -0.399313
v -0.224418 3.226435 -0.359361
v -0.274909 1.919484 -0.436904
v -0.281832 4.370883 -0.345459
vn 0.3211 0.0220 -0.9468
vn 0.8327 0.0111 -0.5536
vn 0.9999 0.0141 -0.0013
vn 0.8326 0.0081 0.5538
vn 0.2774 0.0134 0.9607
vn -0.3229 0.0235 0.9462
vn -0.8035 0.0166 0.5950
vn -0.9998 0.0180 -0.0092
vn -0.8136 0.0164 -0.5812
vn -0.3091 0.0233 -0.9507
vn 0.0000 -1.0000 0.0000
vn -0.3362 0.6887 -0.6424
vn -0.4910 0.6127 -0.6193
vn -0.5526 0.8290 -0.0865
vn -0.4380 0.5352 0.7223
vn 0.3960 -0.8092 -0.4340
vn -0.5490 0.8317 0.0826
vn -0.5044 0.8617 0.0552
vn 0.2352 -0.5696 -0.7875
vn 0.4881 -0.8583 -0.1582
vn 0.3362 -0.9262 -0.1708
vn -0.8541 -0.2574 0.4520
vn -0.2631 0.9279 -0.2641
vn 0.1907 -0.6860 0.7022
vn 0.2923 -0.6637 0.6885
vn -0.4279 0.8721 -0.2372
vn -0.2895 0.9572 0.0023
vn 0.8858 0.4330 0.1669
vn 0.4204 0.2757 0.8644
vn -0.9578 -0.2873 0.0092
vn 0.8850 0.4342 -0.1682
vn 0.4209 0.2799 -0.8628
vn -0.8469 -0.2527 -0.4679
vn 0.2321 -0.9725 -0.0177
vn 0.5025 -0.8368 -0.2174
vn 0.6098 -0.6209 0.4926
vn -0.2680 0.9634 0.0119
vn 0.2662 -0.9639 0.0000
vn 0.6050 0.7604 -0.2361
vn -0.5729 -0.6528 -0.4956
vn 0.4423 0.8863 0.1371
vn 0.4989 0.8579 0.1231
vn -0.0758 -0.0123 -0.9971
vn 0.0869 0.0141 -0.9961
vn 0.4510 -0.8925 0.0000
vn 0.5551 -0.8318 0.0000
vn 0.4384 -0.8988 0.0000
vn -0.1390 -0.0543 -0.9888
vn 0.1043 0.0408 -0.9937
vn 0.5711 -0.8208 0.0000
vn -0.1794 -0.0666 -0.9815
vn 0.6194 -0.7851 0.0000
vn 0.1310 0.0487 -0.9902
vn 0.4138 -0.9104 0.0000
vn -0.7009 -0.7130 0.0192
vn -0.6747 0.7378 -0.0225
vn -0.0669 0.0334 -0.9972
vn -0.1618 0.0569 0.9852
vn 0.6187 0.7853 -0.0220
vn -0.5310 -0.8472 0.0188
vn -0.0649 0.0430 -0.9970
vn 0.1840 -0.1088 -0.9769
vn -0.6564 -0.7542 0.0159
vn -0.0940 0.0729 -0.9929
vn 0.2133 -0.1561 -0.9644
vn -0.6909 -0.7229 0.0085
vn -0.5465 -0.8374 0.0108
vn 0.7614 0.5798 -0.2899
vn -0.7650 -0.5962 -0.2437
vn -0.6097 -0.7925 0.0134
vn -0.6403 -0.7680 0.0129
vn -0.7272 -0.5398 -0.4239
vn 0.7193 0.5489 -0.4257
vn -0.5600 -0.8282 0.0239
vn -0.0020 -0.9999 0.0137
vn -0.7064 -0.7074 0.0254
vn -0.6762 -0.2954 -0.6749
vn 0.8016 0.3875 -0.4552
vn -0.4216 -0.9068 -0.0059
vn 0.1927 -0.9809 0.0272
vn -0.6988 -0.7152 -0.0119
vn 0.7024 -0.6047 0.3755
vn 0.6798 -0.6442 -0.3505
vn 0.4942 -0.8693 0.0018
vn -0.0685 0.9974 -0.0231
vn -0.5979 0.8015 -0.0037
vn 0.5164 -0.7371 -0.4358
vn -0.5354 0.7216 -0.4390
vn -0.2542 -0.9671 -0.0043
vn -0.4853 0.8741 -0.0201
vn 0.4887 -0.8107 -0.3224
vn -0.4033 0.7517 -0.5218
vn -0.1785 -0.9808 0.0785
vn -0.3105 0.9485 -0.0632
vn -0.4899 0.8681 -0.0805
usemtl Material.001
s off
f 1//1 85//1 69//1 77//1 61//1 81//1 65//1 73//1 57//1 83//1 67//1 75//1 59//1 79//1 63//1 71//1 55//1 84//1 68//1 76//1 60//1 80//1 64//1 72//1 56//1 82//1 66//1 74//1 58//1 78//1 62//1 70//1 2//1 4//1 331//1 327//1 329//1 325//1 330//1 326//1 328//1 3//1
f 3//2 328//2 326//2 330//2 325//2 329//2 327//2 331//2 4//2 6//2 182//2 166//2 174//2 158//2 178//2 162//2 170//2 154//2 180//2 164//2 172//2 156//2 176//2 160//2 168//2 152//2 181//2 165//2 173//2 157//2 177//2 161//2 169//2 153//2 179//2 163//2 171//2 155//2 175//2 159//2 167//2 5//2
f 5//3 167//3 159//3 175//3 155//3 171//3 163//3 179//3 153//3 169//3 161//3 177//3 157//3 173//3 165//3 181//3 152//3 168//3 160//3 176//3 156//3 172//3 164//3 180//3 154//3 170//3 162//3 178//3 158//3 174//3 166//3 182//3 6//3 8//3 151//3 135//3 143//3 127//3 147//3 131//3 139//3 123//3 149//3 133//3 141//3 125//3 145//3 129//3 137//3 121//3 150//3 134//3 142//3 126//3 146//3 130//3 138//3 122//3 148//3 132//3 140//3 124//3 144//3 128//3 136//3 7//3
f 7//4 136//4 128//4 144//4 124//4 140//4 132//4 148//4 122//4 138//4 130//4 146//4 126//4 142//4 134//4 150//4 121//4 137//4 129//4 145//4 125//4 141//4 133//4 149//4 123//4 139//4 131//4 147//4 127//4 143//4 135//4 151//4 8//4 10//4 324//4 320//4 322//4 318//4 323//4 319//4 321//4 9//4
f 9//5 321//5 319//5 323//5 318//5 322//5 320//5 324//5 10//5 12//5 54//5 38//5 46//5 30//5 50//5 34//5 42//5 26//5 52//5 36//5 44//5 28//5 48//5 32//5 40//5 24//5 53//5 37//5 45//5 29//5 49//5 33//5 41//5 25//5 51//5 35//5 43//5 27//5 47//5 31//5 39//5 11//5
f 11//6 39//6 31//6 47//6 27//6 43//6 35//6 51//6 25//6 41//6 33//6 49//6 29//6 45//6 37//6 53//6 24//6 40//6 32//6 48//6 28//6 44//6 36//6 52//6 26//6 42//6 34//6 50//6 30//6 46//6 38//6 54//6 12//6 14//6 317//6 313//6 315//6 311//6 316//6 312//6 314//6 13//6
f 13//7 314//7 312//7 316//7 311//7 315//7 313//7 317//7 14//7 16//7 256//7 240//7 248//7 232//7 252//7 236//7 244//7 228//7 254//7 238//7 246//7 230//7 250//7 234//7 242//7 226//7 255//7 239//7 247//7 231//7 251//7 235//7 243//7 227//7 253//7 237//7 245//7 229//7 249//7 233//7 241//7 15//7
f 15//8 241//8 233//8 249//8 229//8 245//8 237//8 253//8 227//8 243//8 235//8 251//8 231//8 247//8 239//8 255//8 226//8 242//8 234//8 250//8 230//8 246//8 238//8 254//8 228//8 244//8 236//8 252//8 232//8 248//8 240//8 256//8 16//8 18//8 225//8 209//8 217//8 201//8 221//8 205//8 213//8 197//8 223//8 207//8 215//8 199//8 219//8 203//8 211//8 195//8 224//8 208//8 216//8 200//8 220//8 204//8 212//8 196//8 222//8 206//8 214//8 198//8 218//8 202//8 210//8 17//8
f 17//9 210//9 202//9 218//9 198//9 214//9 206//9 222//9 196//9 212//9 204//9 220//9 200//9 216//9 208//9 224//9 195//9 211//9 203//9 219//9 199//9 215//9 207//9 223//9 197//9 213//9 205//9 221//9 201//9 217//9 209//9 225//9 18//9 20//9 338//9 334//9 336//9 332//9 337//9 333//9 335//9 19//9
f 19//10 335//10 333//10 337//10 332//10 336//10 334//10 338//10 20//10 2//10 70//10 62//10 78//10 58//10 74//10 66//10 82//10 56//10 72//10 64//10 80//10 60//10 76//10 68//10 84//10 55//10 71//10 63//10 79//10 59//10 75//10 67//10 83//10 57//10 73//10 65//10 81//10 61//10 77//10 69//10 85//10 1//10
f 1//11 3//11 5//11 7//11 9//11 11//11 13//11 15//11 17//11 19//11
f 4//12 23//12 92//12 86//12
f 8//13 10//13 89//13 88//13
f 23//14 21//14 90//14 92//14
f 4//15 6//15 87//15 86//15
f 10//16 22//16 91//16 89//16
f 21//17 22//17 91//17 90//17
f 6//18 8//18 88//18 87//18
f 54//19 14//19 12//19
f 12//20 22//20 10//20
f 14//21 22//21 12//21
f 16//22 14//22 93//22 94//22
f 23//23 2//23 20//23
f 20//24 70//24 2//24
f 70//25 4//25 2//25
f 23//26 4//26 2//26
f 95//27 94//27 93//27 98//27 97//27 99//27 96//27
f 21//28 23//28 99//28 97//28
f 14//29 22//29 98//29 93//29
f 18//30 16//30 94//30 95//30
f 22//31 21//31 97//31 98//31
f 23//32 20//32 96//32 99//32
f 20//33 18//33 95//33 96//33
f 95//34 94//34 93//34 107//34 106//34 105//34 104//34 103//34 102//34 101//34 96//34
f 96//35 101//35 100//35 99//35
f 107//36 93//36 98//36 108//36
f 99//37 100//37 101//37 102//37 103//37 104//37 105//37 106//37 107//37 108//37 98//37 109//37
f 98//38 110//38 109//38
f 109//38 111//38 99//38
f 109//38 110//38 111//38
f 110//38 104//38 111//38
f 113//39 114//39 89//39 91//39 112//39
f 92//40 120//40 119//40 86//40
f 86//41 87//41 88//41 89//41 114//41 115//41 116//41 117//41 118//41 119//41
f 92//42 90//42 91//42 112//42 114//42 115//42 116//42 117//42 118//42 119//42 120//42
f 123//43 139//43 184//43 183//43
f 154//44 170//44 186//44 185//44
f 139//45 170//45 186//45 184//45
f 123//46 154//46 185//46 183//46
f 137//47 168//47 190//47 188//47
f 121//48 137//48 188//48 187//48
f 152//49 168//49 190//49 189//49
f 121//50 152//50 189//50 187//50
f 138//51 130//51 191//51 192//51
f 138//52 169//52 194//52 192//52
f 169//53 161//53 193//53 194//53
f 130//54 161//54 193//54 191//54
f 205//55 236//55 259//55 257//55
f 260//56 258//56 257//56 259//56
f 221//57 205//57 257//57 258//57
f 236//58 252//58 260//58 259//58
f 252//59 221//59 258//59 260//59
f 219//60 250//60 264//60 262//60
f 219//61 203//61 261//61 262//61
f 250//62 234//62 263//62 264//62
f 203//63 234//63 263//63 261//63
f 220//64 204//64 265//64 266//64
f 251//65 235//65 267//65 268//65
f 204//66 235//66 267//66 265//66
f 220//67 251//67 268//67 266//67
f 274//68 183//68 184//68 275//68
f 269//69 270//69 185//69 186//69
f 270//70 271//70 272//70 273//70 274//70 183//70 185//70
f 270//71 271//71 272//71 273//71 274//71 184//71 186//71
f 282//72 281//72 189//72 190//72
f 277//73 187//73 188//73 276//73
f 281//74 280//74 279//74 278//74 277//74 187//74 189//74
f 190//75 282//75 283//75 276//75 188//75
f 276//76 283//76 282//76 281//76 280//76 279//76 278//76 277//76
f 290//77 289//77 194//77 193//77
f 285//78 192//78 191//78 284//78
f 289//79 288//79 287//79 286//79 285//79 192//79 194//79
f 193//80 290//80 284//80 191//80
f 284//81 290//81 289//81 288//81 287//81 286//81 285//81
f 260//82 297//82 296//82 259//82
f 291//83 258//83 257//83 292//83
f 292//84 257//84 259//84 296//84 295//84 294//84 293//84
f 258//85 291//85 297//85 260//85
f 291//86 292//86 293//86 294//86 295//86 296//86 297//86
f 299//87 298//87 262//87 261//87
f 304//88 264//88 263//88 303//88
f 264//89 304//89 298//89 262//89
f 298//90 299//90 300//90 301//90 302//90 303//90 304//90
f 306//91 305//91 266//91 265//91
f 310//92 268//92 267//92 309//92
f 268//93 310//93 305//93 266//93
f 309//94 267//94 265//94 306//94 307//94 308//94
f 305//95 306//95 307//95 308//95 309//95 310//95
